<svg id="svg" version="1.1" xmlns="http://www.w3.org/2000/svg" xmlns:xlink="http://www.w3.org/1999/xlink" width="400" height="400" viewBox="0, 0, 400,400"><g id="svgg"><path id="path0" d="M192.000 17.235 C 187.930 17.376,183.520 17.612,182.200 17.760 C 176.893 18.353,169.103 19.471,166.600 19.998 C 165.720 20.183,163.920 20.543,162.600 20.797 C 161.280 21.052,159.570 21.415,158.800 21.605 C 158.030 21.794,156.500 22.158,155.400 22.413 C 154.300 22.668,152.950 23.018,152.400 23.192 C 151.850 23.365,150.680 23.700,149.800 23.936 C 146.894 24.714,142.613 26.022,141.800 26.380 C 141.360 26.574,140.640 26.821,140.200 26.928 C 135.705 28.024,118.073 35.893,111.200 39.871 C 110.210 40.444,108.840 41.231,108.155 41.619 C 107.470 42.007,106.486 42.567,105.967 42.862 C 104.501 43.699,90.225 53.290,90.000 53.590 C 89.890 53.737,88.540 54.822,87.000 56.002 C 77.622 63.186,65.554 75.087,57.384 85.207 C 52.971 90.673,43.200 104.603,43.200 105.428 C 43.200 105.565,42.846 106.173,42.414 106.780 C 37.571 113.581,27.650 136.195,24.577 147.436 C 24.221 148.736,23.781 150.340,23.597 151.000 C 23.414 151.660,22.972 153.370,22.616 154.800 C 22.259 156.230,21.803 158.030,21.601 158.800 C 20.857 161.633,19.157 170.888,18.649 174.864 C 18.439 176.508,19.063 176.943,22.200 177.337 C 23.080 177.448,24.385 177.665,25.100 177.819 C 26.362 178.092,26.400 178.061,26.400 176.774 C 26.400 176.045,26.594 174.357,26.831 173.024 C 27.692 168.177,28.073 166.165,28.460 164.400 C 28.678 163.410,29.011 161.880,29.200 161.000 C 29.820 158.116,30.471 155.418,30.792 154.400 C 30.965 153.850,31.336 152.590,31.615 151.600 C 41.514 116.481,64.798 82.338,93.400 60.998 C 94.280 60.342,95.090 59.707,95.200 59.589 C 95.519 59.244,100.506 55.755,103.685 53.653 C 118.197 44.055,135.145 36.260,151.600 31.615 C 152.590 31.336,153.850 30.965,154.400 30.792 C 155.394 30.478,157.760 29.906,161.200 29.147 C 162.190 28.928,163.630 28.590,164.400 28.395 C 165.170 28.201,166.520 27.924,167.400 27.780 C 168.280 27.636,169.990 27.357,171.200 27.159 C 184.535 24.980,200.343 24.195,203.212 25.569 C 208.952 28.318,210.394 34.751,206.215 38.969 C 203.645 41.564,203.435 41.621,194.862 42.029 C 187.421 42.383,184.189 42.675,177.200 43.628 C 166.428 45.097,151.892 48.911,142.100 52.839 C 141.605 53.038,140.795 53.357,140.300 53.549 C 133.670 56.123,118.950 63.954,112.351 68.419 C 99.422 77.168,86.700 88.725,77.589 100.000 C 76.611 101.210,75.710 102.290,75.586 102.400 C 75.463 102.510,74.929 103.230,74.400 104.000 C 73.871 104.770,73.326 105.490,73.189 105.600 C 73.052 105.710,72.193 106.880,71.281 108.200 C 70.368 109.520,69.119 111.320,68.505 112.200 C 65.707 116.210,61.064 124.384,58.054 130.600 C 56.243 134.340,54.590 137.713,54.381 138.095 C 54.171 138.477,54.000 138.974,54.000 139.199 C 54.000 139.424,53.661 140.372,53.246 141.304 C 50.712 147.002,47.376 157.915,45.634 166.200 C 44.177 173.136,44.065 173.726,43.576 177.115 C 43.007 181.056,42.842 180.823,46.485 181.223 C 49.495 181.553,53.730 182.103,58.600 182.795 C 60.140 183.014,63.020 183.376,65.000 183.599 C 66.980 183.821,70.040 184.183,71.800 184.402 C 77.374 185.097,100.971 187.348,107.200 187.780 C 109.070 187.909,114.276 188.287,118.769 188.619 C 127.576 189.270,127.364 189.304,127.828 187.200 C 127.949 186.650,128.217 185.887,128.424 185.505 C 128.631 185.123,128.800 184.459,128.800 184.029 C 128.800 183.599,128.980 183.136,129.200 183.000 C 129.420 182.864,129.600 182.491,129.600 182.172 C 129.600 181.609,130.378 179.713,132.132 176.000 C 138.138 163.287,149.933 150.434,162.000 143.453 C 174.017 136.501,185.541 133.443,199.800 133.420 C 208.445 133.407,210.449 133.599,216.800 135.051 C 241.924 140.796,263.516 160.301,271.205 184.200 C 271.701 185.740,272.288 187.505,272.511 188.122 L 272.916 189.245 275.958 189.009 C 277.631 188.880,283.860 188.419,289.800 187.986 C 301.034 187.167,306.252 186.722,312.977 186.011 C 315.164 185.779,318.854 185.409,321.177 185.187 C 327.472 184.587,338.499 183.250,347.800 181.961 C 349.340 181.747,351.950 181.387,353.600 181.160 C 355.250 180.934,357.590 180.593,358.800 180.404 C 360.010 180.215,362.260 179.876,363.800 179.651 C 365.340 179.425,367.770 179.035,369.200 178.784 C 370.630 178.532,372.700 178.179,373.800 178.000 C 374.900 177.821,376.919 177.492,378.286 177.269 C 381.915 176.679,381.823 176.927,380.765 170.600 C 379.339 162.073,376.719 150.779,375.198 146.600 C 375.038 146.160,374.232 143.730,373.408 141.200 C 370.078 130.974,363.857 117.334,357.812 107.000 C 356.230 104.295,349.174 93.450,348.834 93.200 C 348.684 93.090,348.123 92.370,347.586 91.600 C 347.050 90.830,346.392 89.930,346.125 89.600 C 345.857 89.270,344.414 87.461,342.919 85.580 C 336.663 77.710,328.748 69.504,319.390 61.187 C 318.071 60.015,315.774 58.147,310.400 53.877 C 297.869 43.919,278.227 33.383,261.000 27.379 C 259.900 26.996,258.640 26.535,258.200 26.355 C 257.341 26.003,252.816 24.635,250.200 23.936 C 249.320 23.701,248.240 23.363,247.800 23.185 C 247.360 23.006,246.460 22.747,245.800 22.609 C 244.048 22.241,241.652 21.703,239.600 21.217 C 238.610 20.982,236.720 20.597,235.400 20.361 C 234.080 20.125,232.100 19.766,231.000 19.564 C 225.860 18.618,216.879 17.630,211.200 17.386 C 202.300 17.004,199.332 16.980,192.000 17.235 M94.500 229.076 C 94.885 229.176,95.515 229.176,95.900 229.076 C 96.285 228.975,95.970 228.893,95.200 228.893 C 94.430 228.893,94.115 228.975,94.500 229.076 M104.900 229.876 C 105.285 229.976,105.915 229.976,106.300 229.876 C 106.685 229.775,106.370 229.693,105.600 229.693 C 104.830 229.693,104.515 229.775,104.900 229.876 M293.905 229.883 C 294.402 229.979,295.122 229.975,295.505 229.875 C 295.887 229.775,295.480 229.696,294.600 229.701 C 293.720 229.705,293.407 229.787,293.905 229.883 M115.505 230.683 C 116.002 230.779,116.722 230.775,117.105 230.675 C 117.487 230.575,117.080 230.496,116.200 230.501 C 115.320 230.505,115.007 230.587,115.505 230.683 M283.505 230.683 C 284.002 230.779,284.722 230.775,285.105 230.675 C 285.487 230.575,285.080 230.496,284.200 230.501 C 283.320 230.505,283.007 230.587,283.505 230.683 M143.600 258.125 C 143.600 258.194,144.185 258.779,144.900 259.425 L 146.200 260.600 145.025 259.300 C 143.930 258.088,143.600 257.816,143.600 258.125 M209.700 357.876 C 210.085 357.976,210.715 357.976,211.100 357.876 C 211.485 357.775,211.170 357.693,210.400 357.693 C 209.630 357.693,209.315 357.775,209.700 357.876 M201.105 358.283 C 201.602 358.379,202.322 358.375,202.705 358.275 C 203.087 358.175,202.680 358.096,201.800 358.101 C 200.920 358.105,200.607 358.187,201.105 358.283 M206.707 375.090 C 207.426 375.179,208.506 375.177,209.107 375.086 C 209.708 374.995,209.120 374.922,207.800 374.924 C 206.480 374.926,205.988 375.001,206.707 375.090 M193.107 383.090 C 193.826 383.179,194.906 383.177,195.507 383.086 C 196.108 382.995,195.520 382.922,194.200 382.924 C 192.880 382.926,192.388 383.001,193.107 383.090 M204.707 383.090 C 205.426 383.179,206.506 383.177,207.107 383.086 C 207.708 382.995,207.120 382.922,205.800 382.924 C 204.480 382.926,203.988 383.001,204.707 383.090 " stroke="none" fill="#eb5463" fill-rule="evenodd"></path><path id="path1" d="M194.600 184.193 C 179.772 187.930,172.144 201.831,176.748 216.724 C 180.180 227.821,195.459 235.962,206.200 232.417 C 211.335 230.722,213.906 229.247,217.315 226.041 C 235.033 209.373,218.144 178.259,194.600 184.193 M18.182 219.229 C 17.886 219.709,18.624 226.500,19.228 228.846 C 19.432 229.642,19.600 230.791,19.600 231.400 C 19.600 232.009,19.767 233.158,19.972 233.954 C 20.176 234.749,20.550 236.480,20.802 237.800 C 21.054 239.120,21.426 240.875,21.630 241.700 C 21.833 242.525,22.165 243.875,22.367 244.700 C 28.272 268.834,40.743 294.041,56.555 313.800 C 79.103 341.976,108.690 362.686,142.400 373.888 C 146.772 375.341,146.972 375.400,152.200 376.804 C 161.163 379.211,168.368 380.568,179.800 382.004 C 189.363 383.205,210.552 383.215,220.000 382.024 C 226.368 381.221,229.474 380.788,231.400 380.435 C 232.500 380.233,234.480 379.875,235.800 379.639 C 238.131 379.222,240.005 378.806,243.100 378.018 C 243.925 377.808,245.320 377.460,246.200 377.245 C 247.080 377.029,248.430 376.671,249.200 376.449 C 249.970 376.227,251.230 375.874,252.000 375.664 C 256.558 374.424,267.888 370.352,272.258 368.384 C 273.326 367.902,275.001 367.148,275.980 366.708 C 278.718 365.476,286.011 361.833,287.800 360.803 C 288.680 360.297,290.390 359.336,291.600 358.669 C 294.003 357.345,306.477 349.273,306.800 348.833 C 306.910 348.684,307.630 348.129,308.400 347.600 C 316.684 341.911,332.036 327.624,339.348 318.799 C 341.080 316.710,342.880 314.549,343.348 313.999 C 347.281 309.375,355.263 297.658,358.879 291.200 C 359.433 290.210,360.301 288.680,360.806 287.800 C 363.365 283.347,367.965 273.547,370.194 267.800 C 372.010 263.119,375.093 254.261,375.659 252.100 C 375.847 251.385,376.192 250.125,376.427 249.300 C 376.661 248.475,377.021 247.125,377.227 246.300 C 378.286 242.045,378.470 241.276,378.785 239.800 C 379.902 234.560,380.689 230.242,381.190 226.600 C 381.401 225.060,381.693 222.953,381.837 221.919 C 382.226 219.130,382.003 218.820,379.931 219.274 C 373.426 220.699,373.923 220.339,373.541 223.905 C 372.991 229.037,371.020 239.187,369.600 244.200 C 369.351 245.080,368.998 246.430,368.816 247.200 C 367.731 251.788,363.797 262.895,360.743 269.991 C 356.116 280.740,343.696 301.956,340.366 304.800 C 340.237 304.910,339.967 305.294,339.766 305.653 C 337.572 309.566,323.046 325.169,315.405 331.819 C 313.648 333.349,311.967 334.828,311.671 335.106 C 311.374 335.384,310.471 336.103,309.665 336.704 C 308.859 337.304,308.110 337.895,308.000 338.017 C 307.890 338.139,307.170 338.671,306.400 339.200 C 305.630 339.729,304.910 340.269,304.800 340.400 C 304.690 340.531,303.970 341.071,303.200 341.600 C 302.430 342.129,301.710 342.675,301.600 342.814 C 301.327 343.160,291.478 349.569,289.000 351.014 C 287.900 351.655,286.460 352.494,285.800 352.878 C 284.491 353.639,271.861 359.901,269.600 360.910 C 264.444 363.210,253.404 367.117,247.800 368.624 C 246.480 368.979,244.770 369.446,244.000 369.661 C 229.450 373.735,201.280 376.585,196.800 374.438 C 192.922 372.578,191.799 370.863,191.802 366.800 C 191.807 360.139,194.338 358.528,205.657 357.981 C 221.862 357.197,234.492 354.988,249.200 350.365 C 251.290 349.708,253.360 349.014,253.800 348.823 C 254.240 348.632,256.130 347.891,258.000 347.177 C 269.374 342.830,281.501 336.134,293.764 327.432 C 316.028 311.633,337.194 284.119,347.177 258.000 C 347.891 256.130,348.632 254.240,348.823 253.800 C 349.672 251.842,352.659 241.773,353.747 237.200 C 354.345 234.687,355.660 228.148,356.174 225.131 C 356.536 223.007,357.252 223.065,347.000 224.390 C 331.134 226.440,315.045 228.192,303.000 229.183 C 289.297 230.310,282.949 230.782,278.600 230.998 C 271.231 231.364,271.466 231.288,270.820 233.502 C 270.515 234.546,270.135 235.670,269.976 236.000 C 269.817 236.330,268.751 238.580,267.607 241.000 C 258.310 260.665,239.156 276.346,218.488 281.213 C 216.569 281.665,214.640 282.121,214.200 282.227 C 207.486 283.847,192.580 283.848,185.800 282.229 C 185.360 282.124,183.778 281.749,182.285 281.397 C 161.452 276.474,143.037 261.928,133.264 242.674 C 130.710 237.643,129.884 235.768,129.125 233.283 C 128.508 231.266,128.702 231.328,122.000 231.008 C 115.671 230.706,95.382 229.129,88.400 228.396 C 86.310 228.177,82.800 227.819,80.600 227.600 C 73.630 226.907,64.509 225.866,59.600 225.203 C 57.730 224.950,54.895 224.576,53.300 224.372 C 45.113 223.323,39.272 222.482,31.400 221.220 C 29.860 220.973,27.610 220.615,26.400 220.425 C 22.409 219.798,19.063 219.163,18.757 218.973 C 18.591 218.871,18.332 218.986,18.182 219.229 " stroke="none" fill="#f3f3fb" fill-rule="evenodd"></path><path id="path2" d="M178.300 0.275 C 176.375 0.361,174.800 0.604,174.800 0.816 C 174.800 1.027,173.461 1.200,171.824 1.200 C 170.187 1.200,168.736 1.380,168.600 1.600 C 168.464 1.820,167.373 2.000,166.176 2.000 C 164.979 2.000,164.000 2.180,164.000 2.400 C 164.000 2.620,163.100 2.800,162.000 2.800 C 160.900 2.800,160.000 2.980,160.000 3.200 C 160.000 3.420,159.201 3.600,158.224 3.600 C 157.247 3.600,156.336 3.780,156.200 4.000 C 156.064 4.220,155.243 4.400,154.376 4.400 C 153.509 4.400,152.800 4.580,152.800 4.800 C 152.800 5.020,152.080 5.200,151.200 5.200 C 150.320 5.200,149.600 5.380,149.600 5.600 C 149.600 5.820,148.880 6.000,148.000 6.000 C 147.120 6.000,146.400 6.180,146.400 6.400 C 146.400 6.620,145.860 6.800,145.200 6.800 C 144.540 6.800,144.000 6.980,144.000 7.200 C 144.000 7.420,143.370 7.600,142.600 7.600 C 141.830 7.600,141.200 7.780,141.200 8.000 C 141.200 8.220,140.771 8.400,140.246 8.400 C 139.355 8.400,136.018 9.285,134.200 10.003 C 133.760 10.177,132.770 10.536,132.000 10.800 C 130.307 11.382,128.840 11.971,127.905 12.447 C 127.523 12.641,126.848 12.800,126.405 12.800 C 125.962 12.800,125.600 12.980,125.600 13.200 C 125.600 13.420,125.240 13.600,124.800 13.600 C 124.360 13.600,124.000 13.780,124.000 14.000 C 124.000 14.220,123.561 14.400,123.024 14.400 C 122.487 14.400,121.936 14.580,121.800 14.800 C 121.664 15.020,121.203 15.200,120.776 15.200 C 120.349 15.200,120.000 15.380,120.000 15.600 C 120.000 15.820,119.640 16.000,119.200 16.000 C 118.760 16.000,118.400 16.180,118.400 16.400 C 118.400 16.620,118.040 16.800,117.600 16.800 C 117.160 16.800,116.800 16.980,116.800 17.200 C 116.800 17.420,116.350 17.600,115.800 17.600 C 115.250 17.600,114.800 17.780,114.800 18.000 C 114.800 18.220,114.547 18.400,114.238 18.400 C 113.572 18.400,110.259 20.068,110.067 20.500 C 109.993 20.665,109.588 20.800,109.167 20.800 C 108.745 20.800,108.400 20.980,108.400 21.200 C 108.400 21.420,108.040 21.600,107.600 21.600 C 107.160 21.600,106.800 21.780,106.800 22.000 C 106.800 22.220,106.440 22.400,106.000 22.400 C 105.560 22.400,105.200 22.580,105.200 22.800 C 105.200 23.020,104.964 23.200,104.675 23.200 C 104.387 23.200,103.764 23.560,103.292 24.000 C 102.820 24.440,102.225 24.800,101.971 24.800 C 101.389 24.800,97.447 26.895,97.267 27.300 C 97.193 27.465,96.956 27.600,96.739 27.600 C 96.522 27.600,95.559 28.140,94.600 28.800 C 93.641 29.460,92.703 30.000,92.516 30.000 C 92.329 30.000,91.917 30.360,91.600 30.800 C 91.283 31.240,90.703 31.600,90.312 31.600 C 89.920 31.600,89.600 31.750,89.600 31.932 C 89.600 32.115,89.105 32.519,88.500 32.830 C 87.895 33.140,87.109 33.711,86.753 34.097 C 86.397 34.484,85.852 34.800,85.541 34.800 C 85.231 34.800,84.717 35.160,84.400 35.600 C 84.083 36.040,83.620 36.400,83.371 36.400 C 83.122 36.400,82.354 36.940,81.663 37.600 C 80.972 38.260,80.208 38.800,79.964 38.800 C 79.720 38.800,79.017 39.340,78.400 40.000 C 77.783 40.660,77.164 41.200,77.023 41.200 C 76.740 41.200,76.063 41.731,74.599 43.100 C 74.070 43.595,73.466 44.000,73.259 44.000 C 73.051 44.000,71.962 44.900,70.839 46.000 C 69.715 47.100,68.625 48.000,68.417 48.000 C 68.209 48.000,65.914 50.150,63.319 52.779 C 57.608 58.562,58.562 57.608,52.779 63.319 C 50.150 65.914,48.000 68.209,48.000 68.417 C 48.000 68.625,47.100 69.715,46.000 70.839 C 44.900 71.962,44.000 73.051,44.000 73.259 C 44.000 73.466,43.595 74.070,43.100 74.599 C 41.731 76.063,41.200 76.740,41.200 77.023 C 41.200 77.164,40.660 77.783,40.000 78.400 C 39.340 79.017,38.800 79.769,38.800 80.072 C 38.800 80.375,38.440 80.883,38.000 81.200 C 37.560 81.517,37.200 81.980,37.200 82.229 C 37.200 82.478,36.660 83.246,36.000 83.937 C 35.340 84.628,34.800 85.425,34.800 85.708 C 34.800 85.991,34.440 86.483,34.000 86.800 C 33.560 87.117,33.200 87.657,33.200 88.000 C 33.200 88.343,32.840 88.883,32.400 89.200 C 31.960 89.517,31.600 90.057,31.600 90.400 C 31.600 90.743,31.240 91.283,30.800 91.600 C 30.360 91.917,30.000 92.329,30.000 92.516 C 30.000 92.703,29.460 93.641,28.800 94.600 C 28.140 95.559,27.600 96.522,27.600 96.739 C 27.600 96.956,27.465 97.193,27.300 97.267 C 26.895 97.447,24.800 101.389,24.800 101.971 C 24.800 102.225,24.440 102.820,24.000 103.292 C 23.560 103.764,23.200 104.387,23.200 104.675 C 23.200 104.964,23.020 105.200,22.800 105.200 C 22.580 105.200,22.400 105.560,22.400 106.000 C 22.400 106.440,22.220 106.800,22.000 106.800 C 21.780 106.800,21.600 107.160,21.600 107.600 C 21.600 108.040,21.420 108.400,21.200 108.400 C 20.980 108.400,20.800 108.745,20.800 109.167 C 20.800 109.588,20.665 109.993,20.500 110.067 C 20.068 110.259,18.400 113.572,18.400 114.238 C 18.400 114.547,18.220 114.800,18.000 114.800 C 17.780 114.800,17.600 115.250,17.600 115.800 C 17.600 116.350,17.420 116.800,17.200 116.800 C 16.980 116.800,16.800 117.160,16.800 117.600 C 16.800 118.040,16.620 118.400,16.400 118.400 C 16.180 118.400,16.000 118.760,16.000 119.200 C 16.000 119.640,15.820 120.000,15.600 120.000 C 15.380 120.000,15.200 120.349,15.200 120.776 C 15.200 121.203,15.020 121.664,14.800 121.800 C 14.580 121.936,14.400 122.487,14.400 123.024 C 14.400 123.561,14.220 124.000,14.000 124.000 C 13.780 124.000,13.600 124.360,13.600 124.800 C 13.600 125.240,13.420 125.600,13.200 125.600 C 12.980 125.600,12.800 125.962,12.800 126.405 C 12.800 126.848,12.641 127.523,12.447 127.905 C 12.252 128.287,11.871 129.140,11.600 129.800 C 11.329 130.460,10.948 131.313,10.753 131.695 C 10.559 132.077,10.400 132.664,10.400 133.000 C 10.400 133.336,10.237 133.923,10.037 134.305 C 9.440 135.447,8.400 139.222,8.400 140.246 C 8.400 140.771,8.220 141.200,8.000 141.200 C 7.780 141.200,7.600 141.830,7.600 142.600 C 7.600 143.370,7.420 144.000,7.200 144.000 C 6.980 144.000,6.800 144.540,6.800 145.200 C 6.800 145.860,6.620 146.400,6.400 146.400 C 6.180 146.400,6.000 147.120,6.000 148.000 C 6.000 148.880,5.820 149.600,5.600 149.600 C 5.380 149.600,5.200 150.320,5.200 151.200 C 5.200 152.080,5.020 152.800,4.800 152.800 C 4.580 152.800,4.400 153.520,4.400 154.400 C 4.400 155.280,4.220 156.000,4.000 156.000 C 3.780 156.000,3.600 156.900,3.600 158.000 C 3.600 159.100,3.420 160.000,3.200 160.000 C 2.980 160.000,2.800 160.900,2.800 162.000 C 2.800 163.100,2.620 164.000,2.400 164.000 C 2.180 164.000,2.000 164.954,2.000 166.120 C 2.000 167.286,1.835 168.411,1.632 168.620 C 1.430 168.829,1.168 170.170,1.049 171.600 C 0.931 173.030,0.636 176.540,0.393 179.400 C -0.225 186.672,0.040 224.600,0.713 225.273 C 0.999 225.559,1.200 226.872,1.200 228.456 C 1.200 229.939,1.380 231.264,1.600 231.400 C 1.820 231.536,2.000 232.627,2.000 233.824 C 2.000 235.021,2.180 236.000,2.400 236.000 C 2.620 236.000,2.800 236.900,2.800 238.000 C 2.800 239.100,2.980 240.000,3.200 240.000 C 3.420 240.000,3.600 240.900,3.600 242.000 C 3.600 243.100,3.780 244.000,4.000 244.000 C 4.220 244.000,4.400 244.720,4.400 245.600 C 4.400 246.480,4.580 247.200,4.800 247.200 C 5.020 247.200,5.200 247.920,5.200 248.800 C 5.200 249.680,5.380 250.400,5.600 250.400 C 5.820 250.400,6.000 251.120,6.000 252.000 C 6.000 252.880,6.180 253.600,6.400 253.600 C 6.620 253.600,6.800 254.140,6.800 254.800 C 6.800 255.460,6.980 256.000,7.200 256.000 C 7.420 256.000,7.600 256.630,7.600 257.400 C 7.600 258.170,7.780 258.800,8.000 258.800 C 8.220 258.800,8.400 259.229,8.400 259.754 C 8.400 260.645,9.285 263.982,10.003 265.800 C 10.177 266.240,10.536 267.230,10.800 268.000 C 11.382 269.693,11.971 271.160,12.447 272.095 C 12.641 272.477,12.800 273.152,12.800 273.595 C 12.800 274.038,12.980 274.400,13.200 274.400 C 13.420 274.400,13.600 274.760,13.600 275.200 C 13.600 275.640,13.780 276.000,14.000 276.000 C 14.220 276.000,14.400 276.439,14.400 276.976 C 14.400 277.513,14.580 278.064,14.800 278.200 C 15.020 278.336,15.200 278.797,15.200 279.224 C 15.200 279.651,15.380 280.000,15.600 280.000 C 15.820 280.000,16.000 280.360,16.000 280.800 C 16.000 281.240,16.180 281.600,16.400 281.600 C 16.620 281.600,16.800 281.960,16.800 282.400 C 16.800 282.840,16.980 283.200,17.200 283.200 C 17.420 283.200,17.600 283.650,17.600 284.200 C 17.600 284.750,17.780 285.200,18.000 285.200 C 18.220 285.200,18.400 285.445,18.400 285.744 C 18.400 286.401,20.876 291.345,21.300 291.533 C 21.465 291.607,21.600 292.012,21.600 292.433 C 21.600 292.855,21.780 293.200,22.000 293.200 C 22.220 293.200,22.400 293.560,22.400 294.000 C 22.400 294.440,22.580 294.800,22.800 294.800 C 23.020 294.800,23.200 295.036,23.200 295.325 C 23.200 295.613,23.560 296.236,24.000 296.708 C 24.440 297.180,24.800 297.775,24.800 298.029 C 24.800 298.611,26.895 302.553,27.300 302.733 C 27.465 302.807,27.600 303.044,27.600 303.261 C 27.600 303.478,28.140 304.441,28.800 305.400 C 29.460 306.359,30.000 307.297,30.000 307.484 C 30.000 307.671,30.360 308.083,30.800 308.400 C 31.240 308.717,31.600 309.297,31.600 309.688 C 31.600 310.080,31.750 310.400,31.932 310.400 C 32.115 310.400,32.519 310.895,32.830 311.500 C 33.140 312.105,33.711 312.891,34.097 313.247 C 34.484 313.603,34.800 314.148,34.800 314.459 C 34.800 314.769,35.160 315.283,35.600 315.600 C 36.040 315.917,36.400 316.380,36.400 316.629 C 36.400 316.878,36.940 317.646,37.600 318.337 C 38.260 319.028,38.800 319.792,38.800 320.036 C 38.800 320.280,39.340 320.983,40.000 321.600 C 40.660 322.217,41.200 322.836,41.200 322.977 C 41.200 323.260,41.731 323.937,43.100 325.401 C 43.595 325.930,44.000 326.534,44.000 326.741 C 44.000 326.949,44.900 328.038,46.000 329.161 C 47.100 330.285,48.000 331.375,48.000 331.583 C 48.000 331.791,50.150 334.086,52.779 336.681 C 58.562 342.392,57.608 341.438,63.319 347.221 C 65.914 349.850,68.209 352.000,68.417 352.000 C 68.625 352.000,69.715 352.900,70.839 354.000 C 71.962 355.100,73.049 356.000,73.254 356.000 C 73.459 356.000,74.257 356.630,75.027 357.400 C 75.797 358.170,76.618 358.800,76.853 358.800 C 77.087 358.800,77.783 359.340,78.400 360.000 C 79.017 360.660,79.720 361.200,79.964 361.200 C 80.208 361.200,80.972 361.740,81.663 362.400 C 82.354 363.060,83.122 363.600,83.371 363.600 C 83.620 363.600,84.083 363.960,84.400 364.400 C 84.717 364.840,85.257 365.200,85.600 365.200 C 85.943 365.200,86.483 365.560,86.800 366.000 C 87.117 366.440,87.657 366.800,88.000 366.800 C 88.343 366.800,88.883 367.160,89.200 367.600 C 89.517 368.040,90.057 368.400,90.400 368.400 C 90.743 368.400,91.283 368.760,91.600 369.200 C 91.917 369.640,92.329 370.000,92.516 370.000 C 92.703 370.000,93.641 370.540,94.600 371.200 C 95.559 371.860,96.522 372.400,96.739 372.400 C 96.956 372.400,97.193 372.535,97.267 372.700 C 97.463 373.141,101.415 375.200,102.066 375.200 C 102.372 375.200,102.883 375.560,103.200 376.000 C 103.517 376.440,104.097 376.800,104.488 376.800 C 104.880 376.800,105.200 376.980,105.200 377.200 C 105.200 377.420,105.560 377.600,106.000 377.600 C 106.440 377.600,106.800 377.780,106.800 378.000 C 106.800 378.220,107.160 378.400,107.600 378.400 C 108.040 378.400,108.400 378.580,108.400 378.800 C 108.400 379.020,108.745 379.200,109.167 379.200 C 109.588 379.200,109.993 379.335,110.067 379.500 C 110.259 379.932,113.572 381.600,114.238 381.600 C 114.547 381.600,114.800 381.780,114.800 382.000 C 114.800 382.220,115.250 382.400,115.800 382.400 C 116.350 382.400,116.800 382.580,116.800 382.800 C 116.800 383.020,117.160 383.200,117.600 383.200 C 118.040 383.200,118.400 383.380,118.400 383.600 C 118.400 383.820,118.760 384.000,119.200 384.000 C 119.640 384.000,120.000 384.180,120.000 384.400 C 120.000 384.620,120.349 384.800,120.776 384.800 C 121.203 384.800,121.664 384.980,121.800 385.200 C 121.936 385.420,122.487 385.600,123.024 385.600 C 123.561 385.600,124.000 385.780,124.000 386.000 C 124.000 386.220,124.360 386.400,124.800 386.400 C 125.240 386.400,125.600 386.580,125.600 386.800 C 125.600 387.020,125.962 387.200,126.405 387.200 C 126.848 387.200,127.523 387.359,127.905 387.553 C 128.840 388.029,130.307 388.618,132.000 389.200 C 132.770 389.464,133.760 389.823,134.200 389.997 C 136.018 390.715,139.355 391.600,140.246 391.600 C 140.771 391.600,141.200 391.780,141.200 392.000 C 141.200 392.220,141.830 392.400,142.600 392.400 C 143.370 392.400,144.000 392.580,144.000 392.800 C 144.000 393.020,144.529 393.200,145.176 393.200 C 145.823 393.200,146.464 393.380,146.600 393.600 C 146.736 393.820,147.467 394.000,148.224 394.000 C 148.981 394.000,149.600 394.180,149.600 394.400 C 149.600 394.620,150.320 394.800,151.200 394.800 C 152.080 394.800,152.800 394.980,152.800 395.200 C 152.800 395.420,153.509 395.600,154.376 395.600 C 155.243 395.600,156.064 395.780,156.200 396.000 C 156.336 396.220,157.247 396.400,158.224 396.400 C 159.201 396.400,160.000 396.580,160.000 396.800 C 160.000 397.020,160.900 397.200,162.000 397.200 C 163.100 397.200,164.000 397.380,164.000 397.600 C 164.000 397.822,165.059 398.000,166.376 398.000 C 167.683 398.000,168.864 398.180,169.000 398.400 C 169.136 398.620,170.482 398.800,171.990 398.800 C 173.829 398.800,174.788 398.965,174.900 399.300 C 175.144 400.032,224.856 400.032,225.100 399.300 C 225.212 398.965,226.171 398.800,228.010 398.800 C 229.518 398.800,230.864 398.620,231.000 398.400 C 231.136 398.180,232.317 398.000,233.624 398.000 C 234.941 398.000,236.000 397.822,236.000 397.600 C 236.000 397.380,236.900 397.200,238.000 397.200 C 239.100 397.200,240.000 397.020,240.000 396.800 C 240.000 396.580,240.799 396.400,241.776 396.400 C 242.753 396.400,243.664 396.220,243.800 396.000 C 243.936 395.780,244.757 395.600,245.624 395.600 C 246.491 395.600,247.200 395.420,247.200 395.200 C 247.200 394.980,247.920 394.800,248.800 394.800 C 249.680 394.800,250.400 394.620,250.400 394.400 C 250.400 394.180,251.019 394.000,251.776 394.000 C 252.533 394.000,253.264 393.820,253.400 393.600 C 253.536 393.380,254.177 393.200,254.824 393.200 C 255.471 393.200,256.000 393.020,256.000 392.800 C 256.000 392.580,256.630 392.400,257.400 392.400 C 258.170 392.400,258.800 392.241,258.800 392.046 C 258.800 391.851,259.787 391.569,260.994 391.418 C 262.200 391.267,263.291 390.977,263.417 390.772 C 263.544 390.567,264.076 390.400,264.600 390.400 C 265.124 390.400,265.664 390.220,265.800 390.000 C 265.936 389.780,266.399 389.600,266.829 389.600 C 267.259 389.600,267.923 389.441,268.305 389.247 C 268.687 389.052,269.540 388.671,270.200 388.400 C 270.860 388.129,271.713 387.748,272.095 387.553 C 272.477 387.359,273.152 387.200,273.595 387.200 C 274.038 387.200,274.400 387.020,274.400 386.800 C 274.400 386.580,274.760 386.400,275.200 386.400 C 275.640 386.400,276.000 386.220,276.000 386.000 C 276.000 385.780,276.540 385.600,277.200 385.600 C 277.860 385.600,278.400 385.420,278.400 385.200 C 278.400 384.980,278.760 384.800,279.200 384.800 C 279.640 384.800,280.000 384.620,280.000 384.400 C 280.000 384.180,280.360 384.000,280.800 384.000 C 281.240 384.000,281.600 383.820,281.600 383.600 C 281.600 383.380,281.960 383.200,282.400 383.200 C 282.840 383.200,283.200 383.020,283.200 382.800 C 283.200 382.580,283.650 382.400,284.200 382.400 C 284.750 382.400,285.200 382.220,285.200 382.000 C 285.200 381.780,285.445 381.600,285.744 381.600 C 286.401 381.600,291.345 379.124,291.533 378.700 C 291.607 378.535,292.012 378.400,292.433 378.400 C 292.855 378.400,293.200 378.220,293.200 378.000 C 293.200 377.780,293.560 377.600,294.000 377.600 C 294.440 377.600,294.800 377.420,294.800 377.200 C 294.800 376.980,295.036 376.800,295.325 376.800 C 295.613 376.800,296.236 376.440,296.708 376.000 C 297.180 375.560,297.775 375.200,298.029 375.200 C 298.611 375.200,302.553 373.105,302.733 372.700 C 302.807 372.535,303.044 372.400,303.261 372.400 C 303.478 372.400,304.441 371.860,305.400 371.200 C 306.359 370.540,307.297 370.000,307.484 370.000 C 307.671 370.000,308.083 369.640,308.400 369.200 C 308.717 368.760,309.257 368.400,309.600 368.400 C 309.943 368.400,310.483 368.040,310.800 367.600 C 311.117 367.160,311.657 366.800,312.000 366.800 C 312.343 366.800,312.883 366.440,313.200 366.000 C 313.517 365.560,314.057 365.200,314.400 365.200 C 314.743 365.200,315.283 364.840,315.600 364.400 C 315.917 363.960,316.380 363.600,316.629 363.600 C 316.878 363.600,317.646 363.060,318.337 362.400 C 319.028 361.740,319.792 361.200,320.036 361.200 C 320.280 361.200,320.983 360.660,321.600 360.000 C 322.217 359.340,322.881 358.800,323.077 358.800 C 323.273 358.800,324.101 358.170,324.918 357.400 C 325.734 356.630,326.563 356.000,326.760 356.000 C 326.958 356.000,328.038 355.100,329.161 354.000 C 330.285 352.900,331.375 352.000,331.583 352.000 C 331.791 352.000,334.086 349.850,336.681 347.221 C 342.392 341.438,341.438 342.392,347.221 336.681 C 349.850 334.086,352.000 331.791,352.000 331.583 C 352.000 331.375,352.900 330.285,354.000 329.161 C 355.100 328.038,356.000 326.958,356.000 326.760 C 356.000 326.563,356.630 325.734,357.400 324.918 C 358.170 324.101,358.800 323.273,358.800 323.077 C 358.800 322.881,359.340 322.217,360.000 321.600 C 360.660 320.983,361.200 320.263,361.200 320.000 C 361.200 319.737,361.740 319.017,362.400 318.400 C 363.060 317.783,363.600 317.031,363.600 316.728 C 363.600 316.425,363.960 315.917,364.400 315.600 C 364.840 315.283,365.200 314.743,365.200 314.400 C 365.200 314.057,365.560 313.517,366.000 313.200 C 366.440 312.883,366.800 312.343,366.800 312.000 C 366.800 311.657,367.160 311.117,367.600 310.800 C 368.040 310.483,368.400 309.943,368.400 309.600 C 368.400 309.257,368.760 308.717,369.200 308.400 C 369.640 308.083,370.000 307.671,370.000 307.484 C 370.000 307.297,370.540 306.359,371.200 305.400 C 371.860 304.441,372.400 303.478,372.400 303.261 C 372.400 303.044,372.535 302.807,372.700 302.733 C 373.141 302.537,375.200 298.585,375.200 297.934 C 375.200 297.628,375.560 297.117,376.000 296.800 C 376.440 296.483,376.800 295.903,376.800 295.512 C 376.800 295.120,376.980 294.800,377.200 294.800 C 377.420 294.800,377.600 294.440,377.600 294.000 C 377.600 293.560,377.780 293.200,378.000 293.200 C 378.220 293.200,378.400 292.855,378.400 292.433 C 378.400 292.012,378.535 291.607,378.700 291.533 C 379.124 291.345,381.600 286.401,381.600 285.744 C 381.600 285.445,381.780 285.200,382.000 285.200 C 382.220 285.200,382.400 284.750,382.400 284.200 C 382.400 283.650,382.580 283.200,382.800 283.200 C 383.020 283.200,383.200 282.840,383.200 282.400 C 383.200 281.960,383.380 281.600,383.600 281.600 C 383.820 281.600,384.000 281.240,384.000 280.800 C 384.000 280.360,384.180 280.000,384.400 280.000 C 384.620 280.000,384.800 279.651,384.800 279.224 C 384.800 278.797,384.980 278.336,385.200 278.200 C 385.420 278.064,385.600 277.513,385.600 276.976 C 385.600 276.439,385.780 276.000,386.000 276.000 C 386.220 276.000,386.400 275.640,386.400 275.200 C 386.400 274.760,386.580 274.400,386.800 274.400 C 387.020 274.400,387.200 274.038,387.200 273.595 C 387.200 273.152,387.359 272.477,387.553 272.095 C 387.748 271.713,388.129 270.860,388.400 270.200 C 388.671 269.540,389.052 268.687,389.247 268.305 C 389.441 267.923,389.600 267.259,389.600 266.829 C 389.600 266.399,389.780 265.936,390.000 265.800 C 390.220 265.664,390.400 265.124,390.400 264.600 C 390.400 264.076,390.567 263.544,390.772 263.417 C 390.977 263.291,391.267 262.200,391.418 260.994 C 391.569 259.787,391.851 258.800,392.046 258.800 C 392.241 258.800,392.400 258.170,392.400 257.400 C 392.400 256.630,392.580 256.000,392.800 256.000 C 393.020 256.000,393.200 255.471,393.200 254.824 C 393.200 254.177,393.380 253.536,393.600 253.400 C 393.820 253.264,394.000 252.533,394.000 251.776 C 394.000 251.019,394.180 250.400,394.400 250.400 C 394.620 250.400,394.800 249.680,394.800 248.800 C 394.800 247.920,394.980 247.200,395.200 247.200 C 395.420 247.200,395.600 246.491,395.600 245.624 C 395.600 244.757,395.780 243.936,396.000 243.800 C 396.220 243.664,396.400 242.753,396.400 241.776 C 396.400 240.799,396.580 240.000,396.800 240.000 C 397.020 240.000,397.200 239.100,397.200 238.000 C 397.200 236.900,397.380 236.000,397.600 236.000 C 397.822 236.000,398.000 234.941,398.000 233.624 C 398.000 232.317,398.180 231.136,398.400 231.000 C 398.620 230.864,398.800 229.629,398.800 228.256 C 398.800 226.793,399.007 225.553,399.300 225.260 C 400.029 224.531,400.029 175.469,399.300 174.740 C 399.007 174.447,398.800 173.207,398.800 171.744 C 398.800 170.371,398.620 169.136,398.400 169.000 C 398.180 168.864,398.000 167.683,398.000 166.376 C 398.000 165.059,397.822 164.000,397.600 164.000 C 397.380 164.000,397.200 163.100,397.200 162.000 C 397.200 160.900,397.020 160.000,396.800 160.000 C 396.580 160.000,396.400 159.201,396.400 158.224 C 396.400 157.247,396.220 156.336,396.000 156.200 C 395.780 156.064,395.600 155.243,395.600 154.376 C 395.600 153.509,395.420 152.800,395.200 152.800 C 394.980 152.800,394.800 152.080,394.800 151.200 C 394.800 150.320,394.620 149.600,394.400 149.600 C 394.180 149.600,394.000 148.981,394.000 148.224 C 394.000 147.467,393.820 146.736,393.600 146.600 C 393.380 146.464,393.200 145.823,393.200 145.176 C 393.200 144.529,393.020 144.000,392.800 144.000 C 392.580 144.000,392.400 143.370,392.400 142.600 C 392.400 141.830,392.241 141.200,392.046 141.200 C 391.851 141.200,391.569 140.213,391.418 139.006 C 391.267 137.800,390.977 136.709,390.772 136.583 C 390.567 136.456,390.400 135.924,390.400 135.400 C 390.400 134.876,390.220 134.336,390.000 134.200 C 389.780 134.064,389.600 133.601,389.600 133.171 C 389.600 132.741,389.441 132.077,389.247 131.695 C 389.052 131.313,388.671 130.460,388.400 129.800 C 388.129 129.140,387.748 128.287,387.553 127.905 C 387.359 127.523,387.200 126.848,387.200 126.405 C 387.200 125.962,387.020 125.600,386.800 125.600 C 386.580 125.600,386.400 125.240,386.400 124.800 C 386.400 124.360,386.220 124.000,386.000 124.000 C 385.780 124.000,385.600 123.561,385.600 123.024 C 385.600 122.487,385.420 121.936,385.200 121.800 C 384.980 121.664,384.800 121.203,384.800 120.776 C 384.800 120.349,384.620 120.000,384.400 120.000 C 384.180 120.000,384.000 119.640,384.000 119.200 C 384.000 118.760,383.820 118.400,383.600 118.400 C 383.380 118.400,383.200 118.040,383.200 117.600 C 383.200 117.160,383.020 116.800,382.800 116.800 C 382.580 116.800,382.401 116.485,382.403 116.100 C 382.407 115.325,379.186 108.678,378.704 108.467 C 378.537 108.393,378.400 107.988,378.400 107.567 C 378.400 107.145,378.220 106.800,378.000 106.800 C 377.780 106.800,377.600 106.440,377.600 106.000 C 377.600 105.560,377.420 105.200,377.200 105.200 C 376.980 105.200,376.800 104.964,376.800 104.675 C 376.800 104.387,376.440 103.764,376.000 103.292 C 375.560 102.820,375.200 102.225,375.200 101.971 C 375.200 101.389,373.105 97.447,372.700 97.267 C 372.535 97.193,372.400 96.956,372.400 96.739 C 372.400 96.522,371.860 95.559,371.200 94.600 C 370.540 93.641,370.000 92.703,370.000 92.516 C 370.000 92.329,369.640 91.917,369.200 91.600 C 368.760 91.283,368.400 90.743,368.400 90.400 C 368.400 90.057,368.040 89.517,367.600 89.200 C 367.160 88.883,366.800 88.343,366.800 88.000 C 366.800 87.657,366.440 87.117,366.000 86.800 C 365.560 86.483,365.200 85.943,365.200 85.600 C 365.200 85.257,364.840 84.717,364.400 84.400 C 363.960 84.083,363.600 83.620,363.600 83.371 C 363.600 83.122,363.060 82.354,362.400 81.663 C 361.740 80.972,361.200 80.208,361.200 79.964 C 361.200 79.720,360.660 79.017,360.000 78.400 C 359.340 77.783,358.800 77.119,358.800 76.923 C 358.800 76.727,358.170 75.899,357.400 75.082 C 356.630 74.266,356.000 73.437,356.000 73.240 C 356.000 73.042,355.100 71.962,354.000 70.839 C 352.900 69.715,352.000 68.625,352.000 68.417 C 352.000 68.209,349.850 65.914,347.221 63.319 C 341.438 57.608,342.392 58.562,336.681 52.779 C 334.086 50.150,331.791 48.000,331.583 48.000 C 331.375 48.000,330.285 47.100,329.161 46.000 C 328.038 44.900,326.949 44.000,326.741 44.000 C 326.534 44.000,325.930 43.595,325.401 43.100 C 323.937 41.731,323.260 41.200,322.977 41.200 C 322.836 41.200,322.217 40.660,321.600 40.000 C 320.983 39.340,320.280 38.800,320.036 38.800 C 319.792 38.800,319.028 38.260,318.337 37.600 C 317.646 36.940,316.878 36.400,316.629 36.400 C 316.380 36.400,315.917 36.040,315.600 35.600 C 315.283 35.160,314.743 34.800,314.400 34.800 C 314.057 34.800,313.517 34.440,313.200 34.000 C 312.883 33.560,312.343 33.200,312.000 33.200 C 311.657 33.200,311.117 32.840,310.800 32.400 C 310.483 31.960,309.943 31.600,309.600 31.600 C 309.257 31.600,308.717 31.240,308.400 30.800 C 308.083 30.360,307.671 30.000,307.484 30.000 C 307.297 30.000,306.359 29.460,305.400 28.800 C 304.441 28.140,303.478 27.600,303.261 27.600 C 303.044 27.600,302.807 27.465,302.733 27.300 C 302.553 26.895,298.611 24.800,298.029 24.800 C 297.775 24.800,297.180 24.440,296.708 24.000 C 296.236 23.560,295.613 23.200,295.325 23.200 C 295.036 23.200,294.800 23.020,294.800 22.800 C 294.800 22.580,294.440 22.400,294.000 22.400 C 293.560 22.400,293.200 22.220,293.200 22.000 C 293.200 21.780,292.840 21.600,292.400 21.600 C 291.960 21.600,291.600 21.420,291.600 21.200 C 291.600 20.980,291.240 20.800,290.800 20.800 C 290.360 20.800,290.000 20.654,290.000 20.475 C 290.000 20.296,289.370 19.902,288.600 19.600 C 287.830 19.298,287.200 18.904,287.200 18.725 C 287.200 18.546,286.750 18.400,286.200 18.400 C 285.650 18.400,285.200 18.220,285.200 18.000 C 285.200 17.780,284.750 17.600,284.200 17.600 C 283.650 17.600,283.200 17.420,283.200 17.200 C 283.200 16.980,282.840 16.800,282.400 16.800 C 281.960 16.800,281.600 16.620,281.600 16.400 C 281.600 16.180,281.240 16.000,280.800 16.000 C 280.360 16.000,280.000 15.820,280.000 15.600 C 280.000 15.380,279.640 15.200,279.200 15.200 C 278.760 15.200,278.400 15.020,278.400 14.800 C 278.400 14.580,277.860 14.400,277.200 14.400 C 276.540 14.400,276.000 14.220,276.000 14.000 C 276.000 13.780,275.640 13.600,275.200 13.600 C 274.760 13.600,274.400 13.420,274.400 13.200 C 274.400 12.980,274.038 12.800,273.595 12.800 C 273.152 12.800,272.477 12.641,272.095 12.447 C 271.713 12.252,270.860 11.871,270.200 11.600 C 269.540 11.329,268.687 10.948,268.305 10.753 C 267.923 10.559,267.336 10.400,267.000 10.400 C 266.664 10.400,266.077 10.237,265.695 10.037 C 264.553 9.440,260.778 8.400,259.754 8.400 C 259.229 8.400,258.800 8.220,258.800 8.000 C 258.800 7.780,258.170 7.600,257.400 7.600 C 256.630 7.600,256.000 7.420,256.000 7.200 C 256.000 6.980,255.460 6.800,254.800 6.800 C 254.140 6.800,253.600 6.620,253.600 6.400 C 253.600 6.180,252.880 6.000,252.000 6.000 C 251.120 6.000,250.400 5.820,250.400 5.600 C 250.400 5.380,249.680 5.200,248.800 5.200 C 247.920 5.200,247.200 5.020,247.200 4.800 C 247.200 4.580,246.491 4.400,245.624 4.400 C 244.757 4.400,243.936 4.220,243.800 4.000 C 243.664 3.780,242.753 3.600,241.776 3.600 C 240.799 3.600,240.000 3.420,240.000 3.200 C 240.000 2.980,239.100 2.800,238.000 2.800 C 236.900 2.800,236.000 2.620,236.000 2.400 C 236.000 2.180,235.021 2.000,233.824 2.000 C 232.627 2.000,231.536 1.820,231.400 1.600 C 231.264 1.380,229.828 1.200,228.210 1.200 C 226.235 1.200,225.213 1.038,225.103 0.708 C 224.941 0.222,187.291 -0.126,178.300 0.275 M212.379 16.797 C 226.508 18.011,241.109 20.439,248.400 22.785 C 248.950 22.962,250.210 23.334,251.200 23.612 C 253.385 24.225,262.286 27.110,263.400 27.566 C 263.840 27.746,264.650 28.079,265.200 28.306 C 265.750 28.533,266.830 28.949,267.600 29.230 C 268.370 29.511,270.080 30.220,271.400 30.806 C 272.720 31.392,274.429 32.126,275.197 32.436 C 275.966 32.746,278.911 34.142,281.742 35.539 C 286.288 37.781,288.293 38.879,293.000 41.702 C 293.660 42.098,294.515 42.528,294.900 42.658 C 295.285 42.787,295.600 43.052,295.600 43.247 C 295.600 43.441,295.785 43.600,296.012 43.600 C 296.867 43.600,309.807 52.609,314.937 56.776 C 323.610 63.822,332.902 72.864,339.610 80.787 C 340.815 82.209,342.130 83.739,342.534 84.187 C 345.096 87.026,354.971 101.031,357.164 104.935 C 357.582 105.681,358.167 106.720,358.462 107.245 C 358.758 107.770,359.090 108.290,359.200 108.400 C 360.257 109.457,368.320 126.040,370.382 131.400 C 371.313 133.820,372.220 136.160,372.397 136.600 C 372.574 137.040,372.936 138.030,373.200 138.800 C 373.464 139.570,373.821 140.560,373.993 141.000 C 374.164 141.440,374.708 143.150,375.200 144.800 C 375.692 146.450,376.240 148.160,376.418 148.600 C 376.595 149.040,376.831 149.850,376.942 150.400 C 377.053 150.950,377.349 152.120,377.599 153.000 C 377.849 153.880,378.203 155.230,378.386 156.000 C 378.707 157.350,378.931 158.366,380.145 164.000 C 380.453 165.430,381.029 168.809,381.425 171.508 C 382.247 177.120,382.225 177.184,379.310 177.639 C 378.259 177.802,376.320 178.130,375.000 178.367 C 373.680 178.604,371.520 178.971,370.200 179.181 C 368.880 179.392,366.720 179.740,365.400 179.953 C 359.964 180.833,345.756 182.816,339.400 183.582 C 335.660 184.033,331.250 184.576,329.600 184.789 C 327.950 185.001,324.800 185.353,322.600 185.570 C 320.400 185.788,317.610 186.072,316.400 186.202 C 310.437 186.844,306.139 187.256,301.400 187.638 C 289.178 188.624,287.071 188.780,280.781 189.161 C 277.141 189.382,273.885 189.669,273.546 189.800 C 272.648 190.144,272.296 189.494,270.696 184.543 C 268.634 178.166,262.587 166.192,261.162 165.667 C 260.963 165.593,260.800 165.293,260.800 165.000 C 260.800 164.707,260.665 164.407,260.500 164.333 C 260.335 164.260,259.576 163.390,258.814 162.400 C 240.139 138.154,204.921 127.253,177.400 137.200 C 176.960 137.359,175.880 137.718,175.000 137.998 C 163.557 141.640,148.838 152.233,141.323 162.233 C 139.466 164.704,137.792 167.028,137.404 167.671 C 135.127 171.452,133.143 175.118,132.031 177.600 C 130.242 181.589,130.175 181.762,129.182 185.000 C 127.977 188.929,127.484 189.817,126.573 189.708 C 126.148 189.657,122.920 189.415,119.400 189.171 C 109.082 188.454,104.107 188.078,99.000 187.627 C 88.338 186.688,78.130 185.712,75.800 185.410 C 74.920 185.296,71.050 184.831,67.200 184.378 C 59.994 183.529,46.438 181.768,44.055 181.371 L 42.710 181.147 42.949 178.673 C 43.469 173.294,45.073 165.098,46.800 159.000 C 47.049 158.120,47.396 156.770,47.570 156.000 C 49.070 149.384,59.178 125.025,61.182 123.200 C 61.302 123.090,61.668 122.460,61.994 121.800 C 63.988 117.761,73.949 103.218,77.066 99.794 C 77.470 99.350,78.691 97.910,79.781 96.594 C 82.326 93.518,93.033 82.714,95.729 80.500 C 96.868 79.565,98.340 78.330,99.000 77.755 C 99.660 77.181,100.830 76.237,101.600 75.658 C 102.370 75.078,103.090 74.513,103.200 74.401 C 110.889 66.586,138.954 52.276,155.400 47.786 C 156.720 47.426,158.430 46.954,159.200 46.739 C 164.738 45.188,173.038 43.546,179.200 42.781 C 183.126 42.294,190.513 41.716,197.000 41.389 C 202.930 41.090,204.150 40.687,206.133 38.370 C 209.671 34.236,208.137 28.522,202.800 25.962 C 200.256 24.741,182.685 25.667,172.200 27.574 C 170.880 27.814,169.170 28.106,168.400 28.224 C 167.630 28.342,166.235 28.610,165.300 28.819 C 157.420 30.584,156.707 30.761,151.400 32.256 C 145.786 33.838,136.204 37.178,132.400 38.879 C 131.410 39.322,129.970 39.955,129.200 40.287 C 121.220 43.718,101.305 54.964,100.000 56.775 C 99.890 56.928,98.900 57.657,97.800 58.396 C 96.700 59.135,95.333 60.113,94.763 60.570 C 94.192 61.026,93.024 61.940,92.168 62.600 C 85.651 67.623,74.210 78.467,68.948 84.607 C 63.756 90.667,62.159 92.603,61.200 94.000 C 60.671 94.770,60.140 95.490,60.019 95.600 C 56.148 99.131,42.574 122.788,38.790 132.600 C 38.620 133.040,38.208 134.030,37.874 134.800 C 36.155 138.761,32.669 149.472,31.086 155.657 C 29.433 162.112,28.643 165.944,27.099 175.000 L 26.553 178.200 24.976 178.149 C 17.181 177.895,17.245 178.065,19.853 164.400 C 21.014 158.315,21.134 157.817,23.654 148.600 C 23.894 147.720,24.229 146.640,24.398 146.200 C 24.567 145.760,25.119 144.050,25.624 142.400 C 26.130 140.750,26.692 139.229,26.872 139.020 C 27.052 138.811,27.200 138.314,27.200 137.915 C 27.200 137.516,27.380 136.832,27.600 136.395 C 27.820 135.958,28.180 135.242,28.400 134.805 C 28.620 134.368,28.800 133.826,28.800 133.601 C 28.800 133.376,29.178 132.338,29.640 131.296 C 30.102 130.253,30.626 129.040,30.805 128.600 C 32.811 123.670,38.978 111.198,40.393 109.210 C 40.837 108.586,41.200 107.957,41.200 107.810 C 41.200 107.664,41.740 106.759,42.400 105.800 C 43.060 104.841,43.600 103.949,43.600 103.817 C 43.600 103.466,50.389 93.458,52.866 90.157 C 61.509 78.641,72.519 67.150,83.800 57.871 C 89.066 53.540,103.010 43.600,103.820 43.600 C 103.961 43.600,104.554 43.261,105.138 42.847 C 105.722 42.433,106.875 41.713,107.700 41.247 C 108.525 40.781,109.875 40.007,110.700 39.526 C 112.845 38.278,122.272 33.540,124.402 32.641 C 126.791 31.632,128.990 30.677,131.296 29.647 C 132.338 29.181,133.376 28.800,133.601 28.800 C 133.826 28.800,134.368 28.620,134.805 28.400 C 135.242 28.180,135.958 27.820,136.395 27.600 C 136.832 27.380,137.464 27.200,137.800 27.200 C 138.136 27.200,138.723 27.026,139.105 26.814 C 139.799 26.429,145.570 24.515,148.600 23.665 C 153.601 22.263,156.033 21.626,158.000 21.203 C 159.210 20.943,160.830 20.574,161.600 20.383 C 165.480 19.420,178.871 17.539,186.800 16.844 C 192.298 16.361,206.998 16.335,212.379 16.797 M207.600 150.607 C 215.407 151.802,219.276 152.995,225.894 156.248 C 240.117 163.238,250.397 175.316,255.814 191.400 C 259.377 201.978,258.930 217.279,254.734 228.400 C 243.439 258.331,211.248 273.623,181.000 263.425 C 171.313 260.160,161.565 253.340,154.951 245.200 C 154.325 244.430,153.708 243.710,153.580 243.600 C 152.819 242.946,150.165 238.647,147.943 234.469 C 126.530 194.197,162.454 143.696,207.600 150.607 M194.200 167.047 C 169.545 170.781,153.521 194.930,159.756 218.958 C 165.436 240.845,188.479 254.438,210.200 248.714 C 248.156 238.713,252.933 187.410,217.476 170.572 C 211.363 167.669,200.729 166.059,194.200 167.047 M206.000 183.654 C 215.625 186.446,221.861 192.737,224.783 202.600 C 225.550 205.192,225.075 213.950,224.022 216.600 C 220.168 226.304,212.570 232.389,202.900 233.517 C 191.138 234.889,180.520 228.218,175.973 216.600 C 174.987 214.078,174.385 203.855,175.176 203.064 C 175.409 202.831,175.600 202.224,175.600 201.715 C 175.600 201.206,175.760 200.477,175.956 200.095 C 176.152 199.713,176.737 198.500,177.256 197.400 C 177.775 196.300,178.335 195.340,178.500 195.267 C 178.665 195.193,178.800 194.869,178.800 194.546 C 178.800 193.485,185.263 187.437,187.800 186.123 C 193.735 183.051,200.677 182.109,206.000 183.654 M24.800 194.933 C 27.990 195.472,32.040 196.127,33.800 196.390 C 35.560 196.652,37.900 197.019,39.000 197.205 C 40.100 197.390,42.440 197.736,44.200 197.972 C 45.960 198.208,49.290 198.680,51.600 199.021 C 53.910 199.361,57.420 199.808,59.400 200.015 C 61.380 200.221,64.350 200.568,66.000 200.787 C 67.650 201.005,70.800 201.372,73.000 201.602 C 75.200 201.832,78.710 202.202,80.800 202.424 C 92.618 203.681,119.958 205.937,124.040 205.991 C 124.642 206.000,125.528 213.145,125.027 213.956 C 124.940 214.096,122.919 214.077,120.535 213.913 C 107.987 213.051,104.588 212.798,100.200 212.400 C 97.560 212.161,93.600 211.805,91.400 211.609 C 77.767 210.395,52.781 207.408,41.400 205.632 C 40.080 205.426,37.740 205.067,36.200 204.834 C 34.660 204.601,32.320 204.220,31.000 203.986 C 29.680 203.751,27.610 203.398,26.400 203.200 C 25.190 203.002,23.120 202.643,21.800 202.402 C 20.480 202.161,18.815 201.858,18.100 201.729 L 16.800 201.495 16.800 197.814 C 16.800 193.856,16.939 193.451,18.188 193.756 C 18.635 193.865,21.610 194.395,24.800 194.933 M383.114 197.647 L 383.228 201.485 380.814 201.942 C 379.486 202.194,377.275 202.594,375.900 202.830 C 374.525 203.067,372.590 203.412,371.600 203.597 C 370.610 203.782,368.450 204.134,366.800 204.380 C 363.867 204.818,361.349 205.204,356.300 205.989 C 349.085 207.111,329.810 209.507,321.000 210.377 C 318.580 210.616,314.980 210.985,313.000 211.196 C 309.344 211.585,304.219 212.042,295.200 212.783 C 292.450 213.008,288.040 213.371,285.400 213.588 C 279.551 214.069,275.273 214.206,274.988 213.921 C 274.872 213.805,274.897 211.990,275.045 209.888 L 275.313 206.066 279.157 205.826 C 288.799 205.222,306.896 203.726,315.800 202.796 C 317.780 202.589,321.290 202.230,323.600 201.998 C 325.910 201.765,329.196 201.404,330.901 201.195 C 332.607 200.986,335.577 200.626,337.501 200.395 C 343.567 199.668,347.375 199.168,356.000 197.969 C 364.049 196.851,378.102 194.573,380.400 194.014 C 382.963 193.391,382.989 193.426,383.114 197.647 M22.400 219.034 C 26.953 219.863,32.174 220.716,38.000 221.582 C 39.430 221.795,41.860 222.165,43.400 222.406 C 44.940 222.646,47.640 223.025,49.400 223.248 C 51.160 223.471,53.770 223.811,55.200 224.003 C 74.387 226.588,99.218 228.983,121.200 230.368 C 128.009 230.798,129.200 231.018,129.200 231.852 C 129.200 232.159,129.359 232.723,129.553 233.105 C 129.748 233.487,130.087 234.250,130.306 234.800 C 136.890 251.267,149.337 265.826,163.000 273.039 C 163.880 273.503,165.653 274.450,166.941 275.142 C 168.228 275.834,169.533 276.400,169.841 276.400 C 170.148 276.400,170.400 276.580,170.400 276.800 C 170.400 277.020,170.672 277.200,171.005 277.200 C 171.338 277.200,171.968 277.380,172.405 277.600 C 172.842 277.820,173.558 278.180,173.995 278.400 C 174.432 278.620,175.141 278.800,175.571 278.800 C 176.001 278.800,176.451 278.959,176.571 279.154 C 176.692 279.349,177.287 279.604,177.895 279.721 C 178.503 279.838,179.720 280.142,180.600 280.396 C 191.590 283.566,208.410 283.566,219.400 280.396 C 220.280 280.142,221.497 279.838,222.105 279.721 C 222.713 279.604,223.308 279.349,223.429 279.154 C 223.549 278.959,223.999 278.800,224.429 278.800 C 224.859 278.800,225.523 278.641,225.905 278.447 C 226.287 278.252,227.050 277.912,227.600 277.689 C 246.257 270.153,262.530 253.909,269.165 236.200 C 269.659 234.880,270.230 233.487,270.432 233.105 C 270.634 232.723,270.800 232.159,270.800 231.852 C 270.800 231.010,272.009 230.792,279.000 230.368 C 295.323 229.379,315.858 227.534,332.000 225.606 C 333.650 225.409,336.620 225.055,338.600 224.818 C 342.030 224.409,343.986 224.160,350.800 223.267 C 352.450 223.051,354.340 222.762,355.000 222.626 C 356.864 222.241,357.484 222.859,356.888 224.507 C 356.620 225.249,356.400 226.461,356.400 227.200 C 356.400 227.939,356.234 229.096,356.031 229.772 C 355.828 230.447,355.460 231.990,355.214 233.200 C 354.968 234.410,354.601 236.030,354.399 236.800 C 354.197 237.570,353.767 239.280,353.443 240.600 C 352.265 245.402,349.807 253.255,348.435 256.600 C 348.255 257.040,347.927 257.850,347.707 258.400 C 346.698 260.923,346.451 261.513,345.699 263.200 C 336.018 284.910,321.225 305.205,305.027 319.000 C 303.735 320.100,302.481 321.187,302.239 321.415 C 301.998 321.643,300.270 323.049,298.400 324.540 C 296.530 326.030,294.460 327.685,293.800 328.218 C 293.140 328.750,292.390 329.189,292.133 329.193 C 291.877 329.197,291.607 329.355,291.533 329.544 C 290.808 331.415,269.150 343.493,260.500 346.851 C 259.031 347.421,257.658 347.975,256.700 348.385 C 253.365 349.811,243.186 352.941,238.200 354.073 C 237.320 354.273,235.880 354.609,235.000 354.821 C 226.211 356.931,215.859 358.213,204.200 358.635 C 195.148 358.963,192.400 360.808,192.400 366.557 C 192.400 372.656,196.142 375.193,204.292 374.619 C 206.661 374.452,210.850 374.157,213.600 373.963 C 219.492 373.548,224.007 373.042,227.600 372.394 C 229.030 372.137,231.100 371.773,232.200 371.586 C 240.338 370.205,249.762 367.678,259.200 364.346 C 261.070 363.686,263.050 362.954,263.600 362.720 C 264.150 362.485,264.960 362.155,265.400 361.987 C 266.616 361.523,269.260 360.380,270.561 359.756 C 271.200 359.450,271.965 359.200,272.261 359.200 C 272.558 359.200,272.800 359.020,272.800 358.800 C 272.800 358.580,273.046 358.400,273.346 358.400 C 273.887 358.400,280.039 355.341,284.550 352.829 C 290.254 349.652,299.409 343.947,300.000 343.200 C 300.110 343.061,301.096 342.337,302.191 341.592 C 303.286 340.846,304.456 340.014,304.791 339.741 C 305.126 339.469,306.930 338.032,308.800 336.547 C 318.045 329.208,328.155 319.195,335.606 310.000 C 336.587 308.790,337.490 307.710,337.614 307.600 C 337.737 307.490,338.274 306.770,338.806 306.000 C 339.338 305.230,339.998 304.368,340.273 304.085 C 340.547 303.802,341.087 303.037,341.472 302.385 C 341.857 301.733,342.314 301.200,342.486 301.200 C 342.659 301.200,342.800 300.945,342.800 300.633 C 342.800 300.322,342.953 300.007,343.139 299.933 C 343.692 299.716,350.004 289.754,352.602 285.000 C 355.591 279.529,358.400 273.883,358.400 273.346 C 358.400 273.046,358.580 272.800,358.800 272.800 C 359.020 272.800,359.200 272.547,359.200 272.238 C 359.200 271.929,359.586 270.894,360.057 269.938 C 360.528 268.982,361.068 267.795,361.257 267.300 C 361.446 266.805,361.804 265.905,362.054 265.300 C 362.943 263.143,363.162 262.556,364.402 259.000 C 366.228 253.762,366.245 253.711,367.356 250.000 C 369.860 241.636,372.063 231.115,373.131 222.410 C 373.422 220.042,374.271 219.218,376.433 219.206 C 377.002 219.203,378.496 218.993,379.754 218.741 C 381.130 218.464,382.186 218.426,382.406 218.646 C 383.114 219.354,381.651 229.514,379.186 241.000 C 378.997 241.880,378.730 243.140,378.591 243.800 C 378.453 244.460,378.187 245.360,378.000 245.800 C 377.642 246.644,377.285 248.141,376.927 250.304 C 376.809 251.021,376.551 251.706,376.356 251.827 C 376.160 251.948,376.000 252.399,376.000 252.829 C 376.000 253.259,375.838 253.923,375.641 254.305 C 375.444 254.687,374.871 256.350,374.369 258.000 C 373.867 259.650,373.308 261.171,373.128 261.380 C 372.948 261.589,372.800 262.086,372.800 262.484 C 372.800 262.883,372.463 263.972,372.052 264.904 C 371.640 265.837,370.625 268.310,369.795 270.400 C 368.374 273.983,362.110 287.168,361.625 287.600 C 361.409 287.792,359.955 290.435,359.040 292.297 C 358.798 292.790,358.465 293.195,358.300 293.197 C 358.135 293.199,358.000 293.393,358.000 293.628 C 358.000 293.863,357.460 294.841,356.800 295.800 C 356.140 296.759,355.600 297.661,355.600 297.804 C 355.600 298.395,345.757 312.281,344.255 313.810 C 344.005 314.065,343.350 314.866,342.800 315.590 C 342.250 316.314,341.473 317.288,341.073 317.753 C 340.674 318.219,339.420 319.680,338.286 321.000 C 335.608 324.119,324.541 335.188,321.200 338.089 C 319.770 339.331,318.150 340.739,317.600 341.219 C 317.050 341.698,315.970 342.564,315.200 343.143 C 314.430 343.722,313.710 344.297,313.600 344.421 C 313.023 345.071,306.421 349.864,302.400 352.552 C 299.870 354.244,297.611 355.757,297.380 355.914 C 296.962 356.198,296.021 356.744,294.300 357.700 C 293.805 357.975,293.310 358.290,293.200 358.400 C 292.948 358.652,291.469 359.496,289.400 360.570 C 288.520 361.026,287.710 361.501,287.600 361.625 C 287.162 362.116,273.966 368.380,270.400 369.789 C 268.310 370.614,266.195 371.449,265.700 371.645 C 265.205 371.840,264.395 372.172,263.900 372.382 C 263.405 372.592,261.200 373.332,259.000 374.027 C 256.800 374.721,254.687 375.449,254.305 375.645 C 253.923 375.840,253.259 376.000,252.829 376.000 C 252.399 376.000,251.948 376.160,251.827 376.356 C 251.706 376.551,251.021 376.809,250.304 376.927 C 248.141 377.285,246.644 377.642,245.800 378.000 C 245.360 378.187,244.460 378.453,243.800 378.591 C 243.140 378.730,241.835 379.013,240.900 379.221 C 231.326 381.353,223.179 382.560,214.000 383.207 C 199.865 384.202,185.417 383.677,173.000 381.716 C 170.800 381.368,168.010 380.935,166.800 380.752 C 165.590 380.570,163.790 380.221,162.800 379.978 C 161.810 379.734,160.280 379.441,159.400 379.326 C 158.520 379.212,157.629 378.956,157.420 378.759 C 157.211 378.562,156.457 378.400,155.744 378.400 C 155.031 378.400,154.336 378.220,154.200 378.000 C 154.064 377.780,153.434 377.600,152.800 377.600 C 152.166 377.600,151.536 377.420,151.400 377.200 C 151.264 376.980,150.771 376.800,150.305 376.800 C 149.527 376.800,147.822 376.343,145.800 375.592 C 145.360 375.429,143.650 374.881,142.000 374.376 C 140.350 373.870,138.829 373.308,138.620 373.128 C 138.411 372.948,137.914 372.800,137.515 372.800 C 137.116 372.800,136.477 372.641,136.095 372.447 C 135.713 372.252,134.950 371.915,134.400 371.697 C 133.850 371.480,131.835 370.649,129.922 369.851 C 128.009 369.053,126.331 368.400,126.192 368.400 C 125.859 368.400,112.659 361.915,112.400 361.625 C 112.290 361.501,111.770 361.158,111.245 360.862 C 106.273 358.063,105.223 357.445,101.617 355.197 C 99.756 354.037,97.208 352.348,95.954 351.444 C 94.700 350.540,93.272 349.530,92.781 349.200 C 92.013 348.684,86.609 344.548,84.795 343.087 C 75.301 335.444,64.795 324.931,56.800 315.072 C 56.470 314.666,55.866 313.943,55.457 313.466 C 54.299 312.115,47.600 302.844,47.600 302.592 C 47.600 302.468,47.240 301.980,46.800 301.508 C 46.360 301.036,46.000 300.413,46.000 300.125 C 46.000 299.836,45.820 299.600,45.600 299.600 C 45.380 299.600,45.200 299.330,45.200 299.000 C 45.200 298.670,45.020 298.400,44.800 298.400 C 44.580 298.400,44.400 298.207,44.400 297.972 C 44.400 297.737,43.860 296.759,43.200 295.800 C 42.540 294.841,42.000 293.863,42.000 293.628 C 42.000 293.393,41.865 293.199,41.700 293.197 C 41.535 293.195,41.202 292.790,40.961 292.297 C 40.719 291.804,39.834 290.140,38.994 288.600 C 35.488 282.174,30.881 272.391,29.200 267.800 C 28.763 266.606,27.953 264.692,27.553 263.905 C 27.359 263.523,27.200 262.859,27.200 262.429 C 27.200 261.999,27.020 261.536,26.800 261.400 C 26.580 261.264,26.400 260.749,26.400 260.256 C 26.400 259.763,26.251 259.189,26.070 258.980 C 25.888 258.771,25.507 257.790,25.224 256.800 C 24.941 255.810,24.564 254.640,24.388 254.200 C 24.211 253.760,23.950 252.950,23.806 252.400 C 23.663 251.850,23.366 250.770,23.146 250.000 C 22.927 249.230,22.591 247.970,22.400 247.200 C 22.209 246.430,21.848 245.080,21.598 244.200 C 21.348 243.320,20.960 241.700,20.736 240.600 C 20.513 239.500,20.183 237.880,20.004 237.000 C 19.349 233.782,18.031 225.712,17.622 222.423 C 17.068 217.959,16.951 218.042,22.400 219.034 " stroke="none" fill="#040404" fill-rule="evenodd"></path><path id="path3" d="M192.200 150.605 C 148.697 157.397,127.535 205.442,152.122 241.598 C 152.796 242.589,153.452 243.490,153.580 243.600 C 153.708 243.710,154.325 244.430,154.951 245.200 C 183.262 280.038,238.774 270.692,254.734 228.400 C 266.844 196.309,246.393 158.476,213.200 151.564 C 205.671 149.996,198.266 149.657,192.200 150.605 M210.918 168.149 C 233.936 174.555,246.936 198.633,239.582 221.240 C 231.060 247.434,200.072 258.229,177.058 243.019 C 145.339 222.057,156.461 172.762,194.200 167.047 C 197.588 166.534,207.452 167.184,210.918 168.149 M196.400 183.187 C 190.021 184.112,178.800 191.354,178.800 194.546 C 178.800 194.869,178.665 195.193,178.500 195.267 C 178.335 195.340,177.775 196.300,177.256 197.400 C 176.737 198.500,176.152 199.713,175.956 200.095 C 175.760 200.477,175.600 201.206,175.600 201.715 C 175.600 202.224,175.409 202.831,175.176 203.064 C 174.385 203.855,174.987 214.078,175.973 216.600 C 184.189 237.593,212.676 239.763,222.345 220.131 C 223.085 218.629,223.850 217.087,224.045 216.705 C 224.240 216.323,224.391 215.603,224.379 215.105 C 224.367 214.580,223.976 215.227,223.449 216.645 C 217.076 233.790,195.644 238.718,182.763 226.000 C 166.871 210.311,177.731 183.600,200.000 183.600 C 214.416 183.600,225.318 195.115,224.717 209.706 C 224.619 212.080,224.685 213.792,224.864 213.511 C 225.356 212.735,225.263 204.053,224.745 202.428 C 221.548 192.401,215.593 186.437,206.000 183.654 C 203.962 183.062,198.941 182.818,196.400 183.187 M17.088 193.845 C 16.930 194.004,16.800 195.790,16.800 197.814 L 16.800 201.495 18.100 201.729 C 18.815 201.858,20.480 202.161,21.800 202.402 C 23.120 202.643,25.190 203.002,26.400 203.200 C 27.610 203.398,29.680 203.751,31.000 203.986 C 32.320 204.220,34.660 204.601,36.200 204.834 C 37.740 205.067,40.080 205.426,41.400 205.632 C 52.781 207.408,77.767 210.395,91.400 211.609 C 93.600 211.805,97.560 212.161,100.200 212.400 C 104.588 212.798,107.987 213.051,120.535 213.913 C 122.919 214.077,124.940 214.096,125.027 213.956 C 125.528 213.145,124.642 206.000,124.040 205.991 C 119.958 205.937,92.618 203.681,80.800 202.424 C 78.710 202.202,75.200 201.832,73.000 201.602 C 70.800 201.372,67.650 201.005,66.000 200.787 C 64.350 200.568,61.380 200.221,59.400 200.015 C 57.420 199.808,53.910 199.361,51.600 199.021 C 49.290 198.680,45.960 198.208,44.200 197.972 C 42.440 197.736,40.100 197.390,39.000 197.205 C 37.900 197.019,35.560 196.652,33.800 196.390 C 29.701 195.778,19.248 194.015,18.188 193.756 C 17.741 193.647,17.246 193.687,17.088 193.845 M380.400 194.014 C 378.102 194.573,364.049 196.851,356.000 197.969 C 347.375 199.168,343.567 199.668,337.501 200.395 C 335.577 200.626,332.607 200.986,330.901 201.195 C 329.196 201.404,325.910 201.765,323.600 201.998 C 321.290 202.230,317.780 202.589,315.800 202.796 C 306.896 203.726,288.799 205.222,279.157 205.826 L 275.313 206.066 275.045 209.888 C 274.897 211.990,274.872 213.805,274.988 213.921 C 275.273 214.206,279.551 214.069,285.400 213.588 C 288.040 213.371,292.450 213.008,295.200 212.783 C 304.219 212.042,309.344 211.585,313.000 211.196 C 314.980 210.985,318.580 210.616,321.000 210.377 C 329.810 209.507,349.085 207.111,356.300 205.989 C 361.349 205.204,363.867 204.818,366.800 204.380 C 368.450 204.134,370.610 203.782,371.600 203.597 C 372.590 203.412,374.525 203.067,375.900 202.830 C 377.275 202.594,379.486 202.194,380.814 201.942 L 383.228 201.485 383.114 197.647 C 382.989 193.426,382.963 193.391,380.400 194.014 M17.702 218.729 C 17.056 219.139,18.171 227.992,20.004 237.000 C 20.183 237.880,20.513 239.500,20.736 240.600 C 20.960 241.700,21.348 243.320,21.598 244.200 C 21.848 245.080,22.209 246.430,22.400 247.200 C 22.591 247.970,22.927 249.230,23.146 250.000 C 23.366 250.770,23.663 251.850,23.806 252.400 C 23.950 252.950,24.211 253.760,24.388 254.200 C 24.564 254.640,24.941 255.810,25.224 256.800 C 25.507 257.790,25.888 258.771,26.070 258.980 C 26.251 259.189,26.400 259.763,26.400 260.256 C 26.400 260.749,26.580 261.264,26.800 261.400 C 27.020 261.536,27.200 261.999,27.200 262.429 C 27.200 262.859,27.359 263.523,27.553 263.905 C 27.953 264.692,28.763 266.606,29.200 267.800 C 30.881 272.391,35.488 282.174,38.994 288.600 C 39.834 290.140,40.719 291.804,40.961 292.297 C 41.202 292.790,41.535 293.195,41.700 293.197 C 41.865 293.199,42.000 293.393,42.000 293.628 C 42.000 293.863,42.540 294.841,43.200 295.800 C 43.860 296.759,44.400 297.737,44.400 297.972 C 44.400 298.207,44.580 298.400,44.800 298.400 C 45.020 298.400,45.200 298.670,45.200 299.000 C 45.200 299.330,45.380 299.600,45.600 299.600 C 45.820 299.600,46.000 299.836,46.000 300.125 C 46.000 300.413,46.360 301.036,46.800 301.508 C 47.240 301.980,47.600 302.468,47.600 302.592 C 47.600 302.844,54.299 312.115,55.457 313.466 C 55.866 313.943,56.470 314.666,56.800 315.072 C 61.750 321.177,63.285 322.862,70.200 329.789 C 76.203 335.803,79.668 338.961,84.795 343.087 C 86.609 344.548,92.013 348.684,92.781 349.200 C 93.272 349.530,94.700 350.540,95.954 351.444 C 97.208 352.348,99.756 354.037,101.617 355.197 C 105.223 357.445,106.273 358.063,111.245 360.862 C 111.770 361.158,112.290 361.501,112.400 361.625 C 112.659 361.915,125.859 368.400,126.192 368.400 C 126.331 368.400,128.009 369.053,129.922 369.851 C 131.835 370.649,133.760 371.434,134.200 371.597 C 134.640 371.760,135.477 372.118,136.061 372.393 C 136.644 372.668,137.342 372.819,137.611 372.730 C 137.881 372.640,136.774 372.064,135.151 371.450 C 131.313 369.999,130.470 369.653,125.800 367.609 C 122.077 365.980,114.618 362.243,111.243 360.316 C 109.396 359.262,107.826 358.400,107.753 358.400 C 107.317 358.400,92.319 348.490,90.400 346.933 C 90.070 346.665,88.270 345.229,86.400 343.742 C 61.224 323.716,41.670 297.599,29.993 268.400 C 26.270 259.092,22.559 247.172,21.212 240.200 C 21.042 239.320,20.630 237.250,20.296 235.600 C 19.961 233.950,19.477 231.250,19.220 229.600 C 18.962 227.950,18.583 225.625,18.376 224.433 C 18.169 223.242,18.000 221.464,18.000 220.483 L 18.000 218.700 19.300 218.998 C 20.705 219.319,23.207 219.768,27.000 220.379 C 28.320 220.591,30.570 220.961,32.000 221.200 C 37.052 222.045,43.302 222.964,48.200 223.580 C 49.740 223.774,55.950 224.564,62.000 225.336 C 74.854 226.976,79.519 227.423,79.091 226.973 C 78.921 226.795,77.031 226.493,74.891 226.303 C 70.013 225.870,62.818 225.029,55.200 224.003 C 53.770 223.811,51.160 223.471,49.400 223.248 C 47.640 223.025,44.940 222.646,43.400 222.406 C 41.860 222.165,39.430 221.795,38.000 221.582 C 32.174 220.716,26.953 219.863,22.400 219.034 C 18.458 218.316,18.361 218.310,17.702 218.729 M379.400 218.800 C 378.740 218.968,377.570 219.129,376.800 219.159 C 374.223 219.257,373.432 219.957,373.131 222.410 C 371.889 232.532,368.938 245.765,365.997 254.400 C 364.718 258.159,363.079 262.757,362.720 263.600 C 362.485 264.150,362.161 264.960,362.000 265.400 C 361.363 267.139,360.878 268.273,360.057 269.938 C 359.586 270.894,359.200 271.929,359.200 272.238 C 359.200 272.547,359.020 272.800,358.800 272.800 C 358.580 272.800,358.400 273.046,358.400 273.346 C 358.400 273.883,355.591 279.529,352.602 285.000 C 350.004 289.754,343.692 299.716,343.139 299.933 C 342.953 300.007,342.800 300.322,342.800 300.633 C 342.800 300.945,342.659 301.200,342.486 301.200 C 342.314 301.200,341.857 301.733,341.472 302.385 C 341.087 303.037,340.547 303.802,340.273 304.085 C 339.998 304.368,339.338 305.230,338.806 306.000 C 338.274 306.770,337.737 307.490,337.614 307.600 C 337.490 307.710,336.587 308.790,335.606 310.000 C 328.155 319.195,318.045 329.208,308.800 336.547 C 306.930 338.032,305.126 339.469,304.791 339.741 C 304.456 340.014,303.286 340.846,302.191 341.592 C 301.096 342.337,300.110 343.061,300.000 343.200 C 299.409 343.947,290.254 349.652,284.550 352.829 C 280.039 355.341,273.887 358.400,273.346 358.400 C 273.046 358.400,272.800 358.580,272.800 358.800 C 272.800 359.020,272.558 359.200,272.261 359.200 C 271.965 359.200,271.200 359.450,270.561 359.756 C 269.260 360.380,266.616 361.523,265.400 361.987 C 264.960 362.155,264.150 362.485,263.600 362.720 C 262.341 363.257,256.621 365.279,253.200 366.395 C 250.543 367.263,242.679 369.407,239.800 370.048 C 236.660 370.748,234.170 371.252,232.200 371.586 C 231.100 371.773,229.030 372.137,227.600 372.394 C 224.007 373.042,219.492 373.548,213.600 373.963 C 210.850 374.157,206.661 374.452,204.292 374.619 C 196.142 375.193,192.400 372.656,192.400 366.557 C 192.400 360.939,195.329 358.812,203.112 358.777 C 205.910 358.764,208.920 358.590,209.800 358.390 C 210.866 358.148,209.146 358.096,204.643 358.234 C 199.089 358.405,197.622 358.576,196.405 359.197 C 189.317 362.813,190.454 372.891,198.169 374.834 C 200.204 375.346,213.753 374.811,220.000 373.972 C 226.913 373.042,229.105 372.721,231.000 372.359 C 249.079 368.901,262.187 364.582,278.000 356.874 C 280.867 355.477,290.455 350.128,292.179 348.964 C 292.631 348.659,295.340 346.845,298.200 344.932 C 302.642 341.962,305.047 340.208,309.353 336.800 C 322.047 326.753,335.727 311.937,344.829 298.378 C 349.751 291.047,350.393 290.010,353.862 283.800 C 359.518 273.674,366.669 255.975,368.812 246.800 C 368.992 246.030,369.578 243.600,370.114 241.400 C 371.607 235.281,372.556 230.439,373.211 225.600 C 374.001 219.773,373.622 220.282,377.661 219.620 C 378.838 219.428,380.323 219.138,380.962 218.976 L 382.124 218.682 381.868 221.641 C 381.357 227.546,379.490 238.178,377.975 243.800 C 377.738 244.680,377.450 245.850,377.336 246.400 C 377.000 248.009,374.844 255.159,373.778 258.200 C 372.748 261.137,372.565 262.032,373.128 261.380 C 373.308 261.171,373.867 259.650,374.369 258.000 C 374.871 256.350,375.444 254.687,375.641 254.305 C 375.838 253.923,376.000 253.259,376.000 252.829 C 376.000 252.399,376.160 251.948,376.356 251.827 C 376.551 251.706,376.809 251.021,376.927 250.304 C 377.285 248.141,377.642 246.644,378.000 245.800 C 378.187 245.360,378.452 244.460,378.590 243.800 C 378.727 243.140,379.027 241.700,379.255 240.600 C 379.484 239.500,379.842 237.790,380.051 236.800 C 381.557 229.689,382.982 219.419,382.559 218.733 C 382.318 218.344,381.091 218.370,379.400 218.800 M354.711 222.623 C 354.588 222.745,352.983 223.029,351.144 223.254 C 349.305 223.479,346.540 223.827,345.000 224.026 C 342.380 224.365,339.248 224.745,332.000 225.603 C 330.350 225.798,327.249 226.113,325.109 226.303 C 322.969 226.493,321.079 226.795,320.909 226.973 C 320.592 227.306,324.973 227.015,329.600 226.397 C 331.030 226.206,333.910 225.854,336.000 225.615 C 339.806 225.180,347.121 224.250,352.000 223.582 C 356.112 223.019,356.327 223.053,356.496 224.300 L 356.645 225.400 356.976 224.257 C 357.384 222.853,355.697 221.636,354.711 222.623 M355.861 227.737 C 355.684 228.802,355.635 229.768,355.751 229.884 C 356.085 230.219,356.476 228.209,356.322 226.948 C 356.208 226.015,356.121 226.162,355.861 227.737 M86.200 228.002 C 92.910 228.790,96.312 228.979,95.872 228.538 C 95.599 228.266,89.044 227.681,83.200 227.409 C 80.781 227.296,81.646 227.467,86.200 228.002 M313.600 227.600 C 312.261 228.029,314.800 228.037,318.200 227.615 L 320.600 227.318 317.600 227.299 C 315.950 227.288,314.150 227.424,313.600 227.600 M305.200 228.400 C 303.869 228.826,306.815 228.835,310.200 228.415 L 312.600 228.118 309.400 228.099 C 307.640 228.088,305.750 228.224,305.200 228.400 M99.000 229.213 C 103.223 229.647,106.760 229.624,104.600 229.177 C 103.720 228.995,101.470 228.864,99.600 228.886 L 96.200 228.926 99.000 229.213 M295.600 229.200 C 293.665 229.607,297.476 229.616,301.400 229.213 L 304.200 228.926 300.600 228.916 C 298.620 228.910,296.370 229.038,295.600 229.200 M109.000 230.015 C 112.550 230.456,117.172 230.426,115.000 229.977 C 114.120 229.795,111.870 229.662,110.000 229.682 L 106.600 229.718 109.000 230.015 M285.200 230.000 C 283.236 230.413,287.696 230.425,291.000 230.015 C 293.388 229.719,293.382 229.718,290.000 229.711 C 288.130 229.708,285.970 229.838,285.200 230.000 M120.200 230.813 C 124.388 231.243,128.734 231.219,126.600 230.777 C 125.720 230.595,123.290 230.464,121.200 230.486 L 117.400 230.526 120.200 230.813 M273.200 230.800 C 271.297 231.201,276.333 231.210,280.200 230.813 C 282.908 230.535,282.861 230.526,278.800 230.516 C 276.490 230.510,273.970 230.638,273.200 230.800 M354.664 233.539 C 354.268 235.375,354.038 236.971,354.153 237.086 C 354.267 237.201,354.470 236.778,354.603 236.147 C 354.736 235.516,355.032 234.257,355.261 233.348 C 355.490 232.439,355.611 231.359,355.531 230.948 C 355.450 230.537,355.060 231.702,354.664 233.539 M129.040 232.900 C 134.016 246.243,141.390 256.999,151.200 265.221 C 152.630 266.419,153.890 267.507,154.000 267.638 C 156.499 270.605,178.127 281.671,176.600 279.200 C 176.464 278.980,176.001 278.800,175.571 278.800 C 175.141 278.800,174.432 278.620,173.995 278.400 C 173.558 278.180,172.842 277.820,172.405 277.600 C 171.968 277.380,171.338 277.200,171.005 277.200 C 170.672 277.200,170.400 277.020,170.400 276.800 C 170.400 276.580,170.148 276.400,169.841 276.400 C 169.533 276.400,168.228 275.834,166.941 275.142 C 165.653 274.450,163.880 273.503,163.000 273.039 C 149.337 265.826,136.890 251.267,130.306 234.800 C 130.087 234.250,129.748 233.487,129.553 233.105 C 129.359 232.723,129.200 232.138,129.200 231.805 C 129.200 231.472,129.021 231.200,128.803 231.200 C 128.578 231.200,128.681 231.935,129.040 232.900 M270.800 231.805 C 270.800 232.138,270.634 232.723,270.432 233.105 C 270.230 233.487,269.659 234.880,269.165 236.200 C 262.530 253.909,246.257 270.153,227.600 277.689 C 227.050 277.912,226.287 278.252,225.905 278.447 C 225.523 278.641,224.859 278.800,224.429 278.800 C 223.999 278.800,223.536 278.980,223.400 279.200 C 222.441 280.751,234.235 275.569,239.442 272.151 C 240.739 271.300,241.988 270.512,242.217 270.402 C 247.602 267.802,259.553 255.101,264.354 246.878 C 268.195 240.299,272.155 231.200,271.178 231.200 C 270.970 231.200,270.800 231.472,270.800 231.805 M353.438 238.800 C 353.028 240.653,350.885 248.178,350.192 250.200 C 348.908 253.948,348.114 256.020,347.865 256.268 C 347.719 256.414,347.600 256.775,347.600 257.071 C 347.600 257.367,347.222 258.462,346.760 259.504 C 346.298 260.547,345.773 261.760,345.593 262.200 C 341.860 271.338,332.804 287.001,326.632 294.996 C 308.902 317.959,288.547 333.932,262.000 345.713 C 261.230 346.055,259.790 346.636,258.800 347.004 C 257.810 347.373,256.640 347.820,256.200 347.998 C 253.071 349.265,246.155 351.496,240.200 353.161 C 238.660 353.591,237.731 353.956,238.135 353.972 C 239.469 354.023,253.608 349.755,256.800 348.337 C 257.350 348.093,258.205 347.737,258.700 347.546 C 261.019 346.654,261.516 346.450,263.200 345.698 C 273.574 341.069,290.893 331.195,291.533 329.544 C 291.607 329.355,291.877 329.197,292.133 329.193 C 292.390 329.189,293.140 328.750,293.800 328.218 C 294.460 327.685,296.530 326.030,298.400 324.540 C 300.270 323.049,301.998 321.643,302.239 321.415 C 302.481 321.187,303.735 320.100,305.027 319.000 C 311.560 313.436,320.169 304.135,327.064 295.192 C 333.956 286.254,343.030 270.343,346.851 260.500 C 347.043 260.005,347.404 259.105,347.654 258.500 C 347.903 257.895,348.255 257.040,348.435 256.600 C 350.474 251.631,354.140 239.142,353.889 238.024 C 353.812 237.681,353.609 238.030,353.438 238.800 M371.632 264.400 C 371.110 265.830,370.421 267.630,370.101 268.400 C 369.780 269.170,369.375 270.160,369.200 270.600 C 365.843 279.034,357.580 294.301,351.800 302.747 C 349.563 306.016,345.159 312.092,344.804 312.400 C 344.677 312.510,343.862 313.500,342.993 314.600 C 330.390 330.560,309.870 348.376,293.227 357.809 C 292.442 358.254,290.720 359.254,289.400 360.031 C 286.412 361.789,275.862 366.950,270.400 369.326 C 257.955 374.738,239.119 379.753,224.400 381.573 C 222.530 381.804,219.380 382.213,217.400 382.481 C 212.559 383.137,187.441 383.137,182.600 382.481 C 180.620 382.213,177.470 381.805,175.600 381.576 C 171.067 381.019,166.079 380.135,159.600 378.741 C 155.107 377.775,145.740 375.158,141.832 373.778 C 138.943 372.757,137.960 372.559,138.620 373.128 C 138.829 373.308,140.350 373.870,142.000 374.376 C 143.650 374.881,145.360 375.429,145.800 375.592 C 147.822 376.343,149.527 376.800,150.305 376.800 C 150.771 376.800,151.264 376.980,151.400 377.200 C 151.536 377.420,152.166 377.600,152.800 377.600 C 153.434 377.600,154.064 377.780,154.200 378.000 C 154.336 378.220,155.031 378.400,155.744 378.400 C 156.457 378.400,157.211 378.562,157.420 378.759 C 157.629 378.956,158.520 379.212,159.400 379.326 C 160.280 379.441,161.810 379.734,162.800 379.978 C 163.790 380.221,165.590 380.570,166.800 380.752 C 168.010 380.935,170.800 381.368,173.000 381.716 C 182.957 383.288,188.971 383.697,201.176 383.629 C 215.797 383.547,227.110 382.292,240.900 379.221 C 241.835 379.013,243.140 378.730,243.800 378.591 C 244.460 378.453,245.360 378.187,245.800 378.000 C 246.644 377.642,248.141 377.285,250.304 376.927 C 251.021 376.809,251.706 376.551,251.827 376.356 C 251.948 376.160,252.399 376.000,252.829 376.000 C 253.259 376.000,253.923 375.840,254.305 375.645 C 254.687 375.449,256.800 374.721,259.000 374.027 C 261.200 373.332,263.360 372.616,263.800 372.436 C 266.012 371.527,266.890 371.175,270.400 369.789 C 273.966 368.380,287.162 362.116,287.600 361.625 C 287.710 361.501,288.520 361.026,289.400 360.570 C 291.469 359.496,292.948 358.652,293.200 358.400 C 293.310 358.290,293.805 357.975,294.300 357.700 C 296.021 356.744,296.962 356.198,297.380 355.914 C 297.611 355.757,299.870 354.244,302.400 352.552 C 306.421 349.864,313.023 345.071,313.600 344.421 C 313.710 344.297,314.430 343.722,315.200 343.143 C 315.970 342.564,317.050 341.698,317.600 341.219 C 318.150 340.739,319.770 339.331,321.200 338.089 C 324.541 335.188,335.608 324.119,338.286 321.000 C 339.420 319.680,340.674 318.219,341.073 317.753 C 341.473 317.288,342.250 316.314,342.800 315.590 C 343.350 314.866,344.005 314.065,344.255 313.810 C 345.757 312.281,355.600 298.395,355.600 297.804 C 355.600 297.661,356.140 296.759,356.800 295.800 C 357.460 294.841,358.000 293.863,358.000 293.628 C 358.000 293.393,358.135 293.199,358.300 293.197 C 358.465 293.195,358.798 292.790,359.040 292.297 C 359.955 290.435,361.409 287.792,361.625 287.600 C 362.110 287.168,368.374 273.983,369.795 270.400 C 370.625 268.310,371.650 265.816,372.073 264.859 C 372.496 263.901,372.784 262.821,372.712 262.459 C 372.640 262.096,372.154 262.970,371.632 264.400 M177.200 279.772 C 177.200 280.076,181.655 281.249,182.136 281.071 C 182.391 280.976,182.060 280.774,181.400 280.622 C 180.740 280.469,179.787 280.177,179.281 279.972 C 178.323 279.584,177.200 279.476,177.200 279.772 M220.600 279.999 C 220.160 280.188,219.260 280.468,218.600 280.621 C 217.940 280.774,217.609 280.976,217.864 281.071 C 218.345 281.249,222.800 280.076,222.800 279.772 C 222.800 279.490,221.459 279.629,220.600 279.999 M182.800 281.296 C 185.204 283.778,209.520 283.958,216.400 281.545 C 217.650 281.107,215.880 281.293,210.400 282.174 C 205.356 282.986,194.920 282.987,189.765 282.177 C 183.507 281.193,182.587 281.076,182.800 281.296 M233.000 354.800 C 231.460 355.191,230.602 355.531,231.094 355.555 C 232.047 355.603,235.272 354.913,236.600 354.377 L 237.400 354.054 236.600 354.072 C 236.160 354.081,234.540 354.409,233.000 354.800 M227.000 356.000 C 225.844 356.294,225.859 356.307,227.400 356.347 C 228.280 356.369,229.270 356.213,229.600 356.000 C 230.336 355.525,228.868 355.525,227.000 356.000 M220.600 356.856 C 219.280 357.053,216.670 357.377,214.800 357.574 L 211.400 357.934 215.200 357.779 C 220.092 357.580,224.655 357.078,225.035 356.698 C 225.406 356.328,223.740 356.387,220.600 356.856 " stroke="none" fill="#434b53" fill-rule="evenodd"></path><path id="path4" d="M186.800 16.844 C 178.871 17.539,165.480 19.420,161.600 20.383 C 160.830 20.574,159.210 20.943,158.000 21.203 C 156.033 21.626,153.601 22.263,148.600 23.665 C 145.570 24.515,139.799 26.429,139.105 26.814 C 138.723 27.026,138.136 27.200,137.800 27.200 C 137.464 27.200,136.832 27.380,136.395 27.600 C 135.958 27.820,135.242 28.180,134.805 28.400 C 134.368 28.620,133.826 28.800,133.601 28.800 C 133.376 28.800,132.338 29.181,131.296 29.647 C 128.990 30.677,126.791 31.632,124.402 32.641 C 122.272 33.540,112.845 38.278,110.700 39.526 C 109.875 40.007,108.525 40.781,107.700 41.247 C 106.875 41.713,105.722 42.433,105.138 42.847 C 104.554 43.261,103.961 43.600,103.820 43.600 C 103.010 43.600,89.066 53.540,83.800 57.871 C 72.519 67.150,61.509 78.641,52.866 90.157 C 50.389 93.458,43.600 103.466,43.600 103.817 C 43.600 103.949,43.060 104.841,42.400 105.800 C 41.740 106.759,41.200 107.664,41.200 107.810 C 41.200 107.957,40.837 108.586,40.393 109.210 C 38.978 111.198,32.811 123.670,30.805 128.600 C 30.626 129.040,30.102 130.253,29.640 131.296 C 29.178 132.338,28.800 133.376,28.800 133.601 C 28.800 133.826,28.620 134.368,28.400 134.805 C 28.180 135.242,27.820 135.958,27.600 136.395 C 27.380 136.832,27.200 137.516,27.200 137.915 C 27.200 138.314,27.052 138.811,26.872 139.020 C 26.692 139.229,26.130 140.750,25.624 142.400 C 25.119 144.050,24.567 145.760,24.398 146.200 C 24.229 146.640,23.894 147.720,23.654 148.600 C 21.134 157.817,21.014 158.315,19.853 164.400 C 17.245 178.065,17.181 177.895,24.976 178.149 L 26.553 178.200 27.099 175.000 C 28.643 165.944,29.433 162.112,31.086 155.657 C 32.669 149.472,36.155 138.761,37.874 134.800 C 38.208 134.030,38.620 133.040,38.790 132.600 C 42.574 122.788,56.148 99.131,60.019 95.600 C 60.140 95.490,60.671 94.770,61.200 94.000 C 62.159 92.603,63.756 90.667,68.948 84.607 C 74.210 78.467,85.651 67.623,92.168 62.600 C 93.024 61.940,94.192 61.026,94.763 60.570 C 95.333 60.113,96.700 59.135,97.800 58.396 C 98.900 57.657,99.890 56.928,100.000 56.775 C 101.305 54.964,121.220 43.718,129.200 40.287 C 129.970 39.955,131.410 39.322,132.400 38.879 C 136.204 37.178,145.786 33.838,151.400 32.256 C 156.707 30.761,157.420 30.584,165.300 28.819 C 166.235 28.610,167.630 28.342,168.400 28.224 C 169.170 28.106,170.880 27.814,172.200 27.574 C 182.685 25.667,200.256 24.741,202.800 25.962 C 208.137 28.522,209.671 34.236,206.133 38.370 C 204.150 40.687,202.930 41.090,197.000 41.389 C 190.513 41.716,183.126 42.294,179.200 42.781 C 173.038 43.546,164.738 45.188,159.200 46.739 C 158.430 46.954,156.720 47.426,155.400 47.786 C 141.247 51.650,123.205 60.201,110.400 69.112 C 107.753 70.954,103.563 74.033,103.200 74.401 C 103.090 74.513,102.370 75.078,101.600 75.658 C 100.830 76.237,99.660 77.181,99.000 77.755 C 98.340 78.330,96.868 79.565,95.729 80.500 C 93.033 82.714,82.326 93.518,79.781 96.594 C 78.691 97.910,77.470 99.350,77.066 99.794 C 73.949 103.218,63.988 117.761,61.994 121.800 C 61.668 122.460,61.302 123.090,61.182 123.200 C 59.178 125.025,49.070 149.384,47.570 156.000 C 47.396 156.770,47.049 158.120,46.800 159.000 C 45.073 165.098,43.469 173.294,42.949 178.673 L 42.710 181.147 44.055 181.371 C 46.360 181.755,59.870 183.514,67.200 184.385 C 75.499 185.371,80.056 185.854,94.000 187.228 C 96.530 187.477,99.410 187.618,100.400 187.541 C 101.390 187.463,97.610 186.972,92.000 186.449 C 79.511 185.284,75.920 184.921,71.800 184.405 C 70.040 184.184,66.980 183.821,65.000 183.599 C 63.020 183.376,60.140 183.014,58.600 182.795 C 53.730 182.103,49.495 181.553,46.485 181.223 C 42.842 180.823,43.007 181.056,43.576 177.115 C 44.065 173.726,44.177 173.136,45.634 166.200 C 47.376 157.915,50.712 147.002,53.246 141.304 C 53.661 140.372,54.000 139.424,54.000 139.199 C 54.000 138.974,54.171 138.477,54.381 138.095 C 54.590 137.713,56.243 134.340,58.054 130.600 C 61.064 124.384,65.707 116.210,68.505 112.200 C 69.119 111.320,70.368 109.520,71.281 108.200 C 72.193 106.880,73.052 105.710,73.189 105.600 C 73.326 105.490,73.871 104.770,74.400 104.000 C 74.929 103.230,75.463 102.510,75.586 102.400 C 75.710 102.290,76.611 101.210,77.589 100.000 C 86.700 88.725,99.422 77.168,112.351 68.419 C 118.920 63.975,134.347 55.767,140.200 53.603 C 140.640 53.440,141.450 53.121,142.000 52.893 C 151.063 49.136,166.388 45.102,177.200 43.628 C 184.189 42.675,187.421 42.383,194.862 42.029 C 203.435 41.621,203.645 41.564,206.215 38.969 C 210.394 34.751,208.952 28.318,203.212 25.569 C 200.343 24.195,184.535 24.980,171.200 27.159 C 169.990 27.357,168.280 27.636,167.400 27.780 C 166.520 27.924,165.170 28.201,164.400 28.395 C 163.630 28.590,162.145 28.941,161.100 29.175 C 157.040 30.083,155.362 30.488,154.400 30.792 C 153.850 30.965,152.590 31.336,151.600 31.615 C 135.145 36.260,118.197 44.055,103.685 53.653 C 100.506 55.755,95.519 59.244,95.200 59.589 C 95.090 59.707,94.280 60.342,93.400 60.998 C 64.798 82.338,41.514 116.481,31.615 151.600 C 31.336 152.590,30.965 153.850,30.792 154.400 C 30.487 155.366,30.039 157.223,29.200 161.000 C 28.133 165.800,27.946 166.750,26.831 173.024 C 26.594 174.357,26.400 176.045,26.400 176.774 C 26.400 178.061,26.362 178.092,25.100 177.819 C 24.385 177.665,23.080 177.448,22.200 177.337 C 19.063 176.943,18.439 176.508,18.649 174.864 C 19.157 170.888,20.857 161.633,21.601 158.800 C 21.803 158.030,22.259 156.230,22.616 154.800 C 22.972 153.370,23.414 151.660,23.597 151.000 C 23.781 150.340,24.221 148.736,24.577 147.436 C 26.644 139.874,31.053 128.692,35.632 119.400 C 39.023 112.519,41.161 108.539,42.414 106.780 C 42.846 106.173,43.200 105.565,43.200 105.428 C 43.200 104.603,52.971 90.673,57.384 85.207 C 65.554 75.087,77.622 63.186,87.000 56.002 C 88.540 54.822,89.890 53.737,90.000 53.590 C 90.225 53.290,104.501 43.699,105.967 42.862 C 106.486 42.567,107.470 42.007,108.155 41.619 C 108.840 41.231,110.210 40.444,111.200 39.871 C 118.073 35.893,135.705 28.024,140.200 26.928 C 140.640 26.821,141.360 26.574,141.800 26.380 C 142.613 26.022,146.894 24.714,149.800 23.936 C 150.680 23.700,151.850 23.365,152.400 23.192 C 152.950 23.018,154.300 22.668,155.400 22.413 C 156.500 22.158,158.030 21.794,158.800 21.605 C 159.570 21.415,161.280 21.052,162.600 20.797 C 163.920 20.543,165.720 20.183,166.600 19.998 C 169.796 19.325,177.337 18.293,184.276 17.579 C 188.499 17.145,211.410 16.994,213.700 17.386 C 214.415 17.508,216.800 17.787,219.000 18.006 C 223.816 18.484,228.289 19.065,231.000 19.564 C 232.100 19.766,234.080 20.125,235.400 20.361 C 236.720 20.597,238.610 20.982,239.600 21.217 C 241.652 21.703,244.048 22.241,245.800 22.609 C 246.460 22.747,247.360 23.006,247.800 23.185 C 248.240 23.363,249.320 23.701,250.200 23.936 C 252.816 24.635,257.341 26.003,258.200 26.355 C 258.640 26.535,259.900 26.996,261.000 27.379 C 278.227 33.383,297.869 43.919,310.400 53.877 C 315.774 58.147,318.071 60.015,319.390 61.187 C 328.748 69.504,336.663 77.710,342.919 85.580 C 344.414 87.461,345.857 89.270,346.125 89.600 C 346.392 89.930,347.050 90.830,347.586 91.600 C 348.123 92.370,348.684 93.090,348.834 93.200 C 349.174 93.450,356.230 104.295,357.812 107.000 C 363.857 117.334,370.078 130.974,373.408 141.200 C 374.232 143.730,375.042 146.160,375.208 146.600 C 376.273 149.430,378.698 159.353,379.949 166.000 C 381.296 173.152,381.653 176.320,381.148 176.632 C 380.941 176.760,379.653 177.047,378.286 177.269 C 376.919 177.492,374.900 177.821,373.800 178.000 C 372.700 178.179,370.630 178.532,369.200 178.784 C 367.770 179.035,365.340 179.425,363.800 179.651 C 362.260 179.876,360.010 180.215,358.800 180.404 C 357.590 180.593,355.250 180.934,353.600 181.160 C 351.950 181.387,349.340 181.747,347.800 181.961 C 338.514 183.248,327.475 184.586,321.196 185.185 C 318.884 185.406,315.284 185.769,313.196 185.992 C 311.108 186.214,307.150 186.584,304.400 186.812 C 301.650 187.041,299.130 187.291,298.800 187.368 C 297.405 187.692,304.068 187.569,307.000 187.216 C 310.311 186.818,315.149 186.307,322.400 185.591 C 324.710 185.362,327.950 185.001,329.600 184.789 C 331.250 184.576,335.660 184.033,339.400 183.582 C 345.756 182.816,359.964 180.833,365.400 179.953 C 366.720 179.740,368.880 179.392,370.200 179.181 C 371.520 178.971,373.680 178.604,375.000 178.367 C 376.320 178.130,378.259 177.802,379.310 177.639 C 382.225 177.184,382.247 177.120,381.425 171.508 C 381.029 168.809,380.453 165.430,380.145 164.000 C 378.931 158.366,378.707 157.350,378.386 156.000 C 378.203 155.230,377.849 153.880,377.599 153.000 C 377.349 152.120,377.053 150.950,376.942 150.400 C 376.831 149.850,376.595 149.040,376.418 148.600 C 376.240 148.160,375.692 146.450,375.200 144.800 C 374.708 143.150,374.164 141.440,373.993 141.000 C 373.821 140.560,373.464 139.570,373.200 138.800 C 372.936 138.030,372.574 137.040,372.397 136.600 C 372.220 136.160,371.313 133.820,370.382 131.400 C 368.320 126.040,360.257 109.457,359.200 108.400 C 359.090 108.290,358.758 107.770,358.462 107.245 C 358.167 106.720,357.582 105.681,357.164 104.935 C 354.971 101.031,345.096 87.026,342.534 84.187 C 342.130 83.739,340.815 82.209,339.610 80.787 C 332.902 72.864,323.610 63.822,314.937 56.776 C 309.807 52.609,296.867 43.600,296.012 43.600 C 295.785 43.600,295.600 43.441,295.600 43.247 C 295.600 43.052,295.285 42.787,294.900 42.658 C 294.515 42.528,293.660 42.098,293.000 41.702 C 288.293 38.879,286.288 37.781,281.742 35.539 C 278.911 34.142,275.966 32.746,275.197 32.436 C 274.429 32.126,272.720 31.392,271.400 30.806 C 270.080 30.220,268.370 29.511,267.600 29.230 C 266.830 28.949,265.750 28.533,265.200 28.306 C 264.650 28.079,263.840 27.746,263.400 27.566 C 262.286 27.110,253.385 24.225,251.200 23.612 C 250.210 23.334,248.950 22.962,248.400 22.785 C 233.935 18.130,204.505 15.291,186.800 16.844 M191.600 133.586 C 180.775 134.785,167.284 139.639,159.000 145.317 C 147.218 153.392,137.651 164.317,132.132 176.000 C 130.378 179.713,129.600 181.609,129.600 182.172 C 129.600 182.491,129.420 182.864,129.200 183.000 C 128.980 183.136,128.800 183.599,128.800 184.029 C 128.800 184.459,128.631 185.123,128.424 185.505 C 128.217 185.887,127.949 186.650,127.828 187.200 C 127.364 189.301,127.548 189.271,119.169 188.635 C 107.102 187.720,102.175 187.474,102.485 187.802 C 102.641 187.967,105.161 188.253,108.085 188.436 C 115.687 188.911,125.667 189.598,126.573 189.707 C 127.485 189.817,127.976 188.930,129.182 185.000 C 130.175 181.762,130.242 181.589,132.031 177.600 C 133.143 175.118,135.127 171.452,137.404 167.671 C 137.792 167.028,139.466 164.704,141.323 162.233 C 148.838 152.233,163.557 141.640,175.000 137.998 C 175.880 137.718,176.960 137.359,177.400 137.200 C 204.921 127.253,240.139 138.154,258.814 162.400 C 259.576 163.390,260.335 164.260,260.500 164.333 C 260.665 164.407,260.800 164.707,260.800 165.000 C 260.800 165.293,260.963 165.593,261.162 165.667 C 262.587 166.192,268.634 178.166,270.696 184.543 C 272.332 189.605,272.618 190.112,273.662 189.780 C 274.074 189.649,277.244 189.377,280.706 189.175 C 291.489 188.544,297.674 188.059,297.908 187.825 C 298.345 187.388,294.682 187.586,275.958 189.013 L 272.916 189.245 272.511 188.122 C 272.288 187.505,271.701 185.740,271.205 184.200 C 266.525 169.655,255.357 155.000,242.176 146.108 C 233.182 140.042,223.915 136.319,212.400 134.147 C 208.811 133.470,195.814 133.119,191.600 133.586 " stroke="none" fill="#602f34" fill-rule="evenodd"></path></g></svg>